<svg xmlns="http://www.w3.org/2000/svg" width="24" height="24" fill="none">
  <path fill="#0B0D08" d="M0 12C0 5.37258 5.37258 0 12 0c6.6274 0 12 5.37258 12 12 0 6.6274-5.3726 12-12 12-6.62742 0-12-5.3726-12-12Z"/>
  <path fill="#DFFEA1" d="M11.9998 6.58231c-1.2333-1.23333-1.2333-3.23333 0-4.46666 1.2334 1.23333 1.2334 3.23333 0 4.46666ZM8.19297 8.17395c-1.74431 0-3.15843-1.41411-3.15843-3.15843 1.74431 0 3.15843 1.41412 3.15843 3.15843Zm7.59393 0c1.7443 0 3.1584-1.41411 3.1584-3.15843-1.7443 0-3.1584 1.41412-3.1584 3.15843Zm3.1973 10.81025c-1.7443 0-3.1584-1.4141-3.1584-3.1584 1.7443 0 3.1584 1.4141 3.1584 3.1584Zm-13.95917-.0095c1.74431 0 3.15843-1.4141 3.15843-3.1584-1.74431 0-3.15843 1.4141-3.15843 3.1584Zm12.40237-6.9749c1.2333-1.2333 3.2333-1.2333 4.4666 0-1.2333 1.2334-3.2333 1.2334-4.4666 0Zm-15.32203 0c1.23333-1.2333 3.23333-1.2333 4.46666 0-1.23333 1.2334-3.23333 1.2334-4.46666 0Zm9.89483 2.087c1.1524 0 2.0866-.9342 2.0866-2.0866 0-1.1525-.9342-2.0867-2.0866-2.0867-1.1525 0-2.0867.9342-2.0867 2.0867 0 1.1524.9342 2.0866 2.0867 2.0866Z"/>
  <path fill="#DFFEA1" d="M12 15.6168c1.9975 0 3.6168-1.6193 3.6168-3.6168 0-1.9976-1.6193-3.61688-3.6168-3.61688-1.9976 0-3.61688 1.61928-3.61688 3.61688 0 1.9975 1.61928 3.6168 3.61688 3.6168Zm2.2413 3.3974H9.75853v1.8502h4.48277v-1.8502Z"/>
</svg>
