<svg width="96" height="156" viewBox="0 0 96 156" fill="none" xmlns="http://www.w3.org/2000/svg">
<path d="M34.84 78.0012C25.22 87.6212 9.62 87.6212 -3.15378e-07 78.0012C9.62 68.3812 25.22 68.3812 34.84 78.0012Z" fill="#0B0D08"/>
<path d="M47.2564 107.693C47.2564 121.298 36.2263 132.328 22.6206 132.328C22.6206 118.723 33.6507 107.693 47.2564 107.693Z" fill="#0B0D08"/>
<path d="M47.2564 48.4569C47.2564 34.8512 36.2263 23.8211 22.6206 23.8211C22.6206 37.4268 33.6507 48.4569 47.2564 48.4569Z" fill="#0B0D08"/>
<path d="M77.0988 35.6664C67.4788 26.0464 67.4788 10.4464 77.0988 0.826355C86.7188 10.4464 86.7188 26.0464 77.0988 35.6664Z" fill="#0B0D08"/>
<path d="M77.0988 155.174C67.4788 145.554 67.4788 129.954 77.0988 120.334C86.7188 129.954 86.7188 145.554 77.0988 155.174Z" fill="#0B0D08"/>
<path d="M105.31 77.9963C105.31 62.4155 92.6795 49.7848 77.0987 49.7848C61.5179 49.7848 48.8872 62.4155 48.8872 77.9963C48.8872 93.5771 61.5179 106.208 77.0987 106.208C92.6795 106.208 105.31 93.5771 105.31 77.9963Z" fill="#0B0D08"/>
</svg>
