<svg width="250" height="250" viewBox="0 0 250 250" fill="none" xmlns="http://www.w3.org/2000/svg">
<g clip-path="url(#clip0_422_29)">
<path d="M125 250C194.036 250 250 194.036 250 125C250 55.9644 194.036 0 125 0C55.9644 0 0 55.9644 0 125C0 194.036 55.9644 250 125 250Z" fill="#0B0D08"/>
<path d="M34.33 128.89C29.45 133.77 21.545 133.77 16.665 128.89C21.545 124.01 29.45 124.01 34.33 128.89Z" fill="#F8FDEA"/>
<path d="M90.84 84.595C85.66 89.15 77.765 88.64 73.215 83.455C78.395 78.9 86.29 79.41 90.84 84.595Z" fill="#F8FDEA"/>
<path d="M222.7 108.685C217.31 112.995 209.45 112.115 205.145 106.73C210.535 102.42 218.395 103.3 222.7 108.685Z" fill="#F8FDEA"/>
<path d="M175.565 192.385C170.87 197.44 162.97 197.73 157.915 193.04C162.61 187.985 170.51 187.695 175.565 192.385Z" fill="#F8FDEA"/>
<path d="M103.665 162.71C98.97 167.765 91.07 168.055 86.015 163.365C90.71 158.31 98.61 158.02 103.665 162.71Z" fill="#F8FDEA"/>
<path d="M184.395 57.8899C179.515 62.7699 171.61 62.7699 166.73 57.8899C171.61 53.0099 179.515 53.0099 184.395 57.8899Z" fill="#F8FDEA"/>
<path d="M124.075 114.955C123.81 109.755 123.49 102.63 123.23 94.155C122.55 71.97 122.75 55.095 122.91 42.515C123.06 30.995 123.375 16.66 124.065 0.125L130.235 78.535C130.28 79.125 130.28 79.725 130.235 80.315L124.075 114.95V114.955Z" fill="#F8FDEA" stroke="#F8FDEA" stroke-width="1.09" stroke-linecap="round" stroke-linejoin="round"/>
<path d="M124.075 126C123.81 120.3 123.49 112.485 123.23 103.2C122.55 78.88 122.75 60.385 122.91 46.595C123.06 33.965 123.375 18.255 124.065 0.125L130.235 86.075C130.28 86.725 130.28 87.38 130.235 88.03L124.075 126Z" fill="#F8FDEA" stroke="#F8FDEA" stroke-width="1.14" stroke-linecap="round" stroke-linejoin="round"/>
<path d="M126.185 124.94C121.32 128.06 114.635 132.3 106.625 137.235C85.6549 150.155 69.3449 159.37 57.1799 166.225C46.0399 172.505 32.1099 180.195 15.8799 188.795L88.1149 139.86C88.6599 139.49 89.2349 139.16 89.8249 138.87L126.185 124.94Z" fill="#F8FDEA" stroke="#F8FDEA" stroke-width="1.145" stroke-linecap="round" stroke-linejoin="round"/>
<path d="M122.695 124.335C127.815 127.035 134.81 130.765 143.065 135.31C164.675 147.205 180.755 156.87 192.73 164.085C203.7 170.695 217.28 179.03 232.785 188.93L154.495 150.14C153.905 149.845 153.33 149.51 152.785 149.14L122.695 124.345V124.335Z" fill="#F8FDEA" stroke="#F8FDEA" stroke-width="0.6" stroke-linecap="round" stroke-linejoin="round"/>
<path d="M128.93 353.145H119.81L122.22 133.855C122.22 131.445 123.025 129.49 124.02 129.49H124.72C125.715 129.49 126.52 131.445 126.52 133.855L128.93 353.145Z" fill="#F8FDEA" stroke="#F8FDEA" stroke-width="1.015" stroke-linecap="round" stroke-linejoin="round"/>
<path d="M124.37 131.555C127.628 131.555 130.27 128.913 130.27 125.655C130.27 122.396 127.628 119.755 124.37 119.755C121.111 119.755 118.47 122.396 118.47 125.655C118.47 128.913 121.111 131.555 124.37 131.555Z" fill="#F8FDEA" stroke="#F8FDEA" stroke-width="0.6" stroke-linecap="round" stroke-linejoin="round"/>
<path d="M124.37 133.935C128.943 133.935 132.65 130.228 132.65 125.655C132.65 121.082 128.943 117.375 124.37 117.375C119.797 117.375 116.09 121.082 116.09 125.655C116.09 130.228 119.797 133.935 124.37 133.935Z" fill="#F8FDEA" stroke="#F8FDEA" stroke-width="0.84" stroke-linecap="round" stroke-linejoin="round"/>
</g>
<defs>
<clipPath id="clip0_422_29">
<rect width="250" height="250" fill="white"/>
</clipPath>
</defs>
</svg>
