<svg xmlns="http://www.w3.org/2000/svg" width="65" height="65" fill="none">
  <g clip-path="url(#a)">
    <path fill="#DFFEA1" d="M32.5 64.5c17.6731 0 32-14.3269 32-32 0-17.6731-14.3269-32-32-32-17.6731 0-32 14.3269-32 32 0 17.6731 14.3269 32 32 32Z"/>
    <path fill="#0B0D08" d="M32.4811 15.9893c-2.2487-2.2488-2.2487-5.8955 0-8.14433 2.2488 2.24883 2.2488 5.89553 0 8.14433Zm-12.1436 5.1952c-3.1799 0-5.7588-2.5788-5.7588-5.7587 3.18 0 5.7588 2.5788 5.7588 5.7587Zm-4.913 12.2592c-2.2488 2.2488-5.8955 2.2488-8.14429 0 2.24879-2.2488 5.89549-2.2488 8.14429 0Zm34.5111-.3977c2.2488-2.2488 5.8955-2.2488 8.1443 0-2.2488 2.2487-5.8955 2.2487-8.1443 0Zm-5.1953-12.1438c0-3.1799 2.5788-5.7588 5.7587-5.7588 0 3.18-2.5788 5.7588-5.7587 5.7588Z"/>
    <path fill="#0B0D08" stroke="#0B0D08" stroke-linecap="round" stroke-linejoin="round" stroke-width=".953725" d="M32.4811 45.9049c7.0603 0 12.7837-5.7235 12.7837-12.7837s-5.7234-12.7837-12.7837-12.7837c-7.0602 0-12.7837 5.7235-12.7837 12.7837s5.7235 12.7837 12.7837 12.7837Z"/>
    <path fill="#DFFEA1" d="M38.4633 44.8646H26.5706v9.9137h11.8927v-9.9137Z"/>
    <path fill="#0B0D08" d="M37.3276 46.0003v7.6423h-9.6201v-7.6423h9.6201Zm2.2714-2.2714H25.4349V55.914H39.599V43.7289Z"/>
    <path fill="#0B0D08" d="M39.5989 55.8901v-5.8453h-14.164v5.8453h14.164Z"/>
    <path fill="#DFFEA1" d="M32.6268 44.3538c-4.9255-4.7649-5.056-12.6218-.2912-17.5473 4.9255 4.7649 5.056 12.6218.2912 17.5473Z"/>
  </g>
  <defs>
    <clipPath id="a">
      <path fill="#fff" d="M.5.5h64v64H.5z"/>
    </clipPath>
  </defs>
</svg>
