<svg xmlns="http://www.w3.org/2000/svg" width="65" height="65" fill="none">
  <g clip-path="url(#a)">
    <path fill="#DFFEA1" d="M32.5 64.5c17.6731 0 32-14.3269 32-32 0-17.6731-14.3269-32-32-32-17.6731 0-32 14.3269-32 32 0 17.6731 14.3269 32 32 32Z"/>
    <path fill="#0B0D08" stroke="#0B0D08" stroke-linecap="round" stroke-linejoin="round" stroke-width="1.69663" d="M32.5 49.9582c10.475 0 18.9666-8.4916 18.9666-18.9666 0-10.4749-8.4916-18.9666-18.9666-18.9666s-18.9666 8.4917-18.9666 18.9666c0 10.475 8.4916 18.9666 18.9666 18.9666Z"/>
    <path stroke="#DFFEA1" stroke-linecap="round" stroke-linejoin="round" stroke-width="2.63278" d="M35.9874 27.0274c.0088-.2334.0376-1.5987-1.0052-2.5876-1.0729-1.0177-2.7482-1.1306-3.9253-.4392-.1192.0703-1.3402.8119-1.4557 2.0932-.0816.9048.4141 1.6439.7216 2.0267 1.8321 2.2776 6.42 4.165 6.0574 6.7551-.0766.5509-.4141 1.4118-1.1257 2.048-.9562.8533-2.1233.8834-2.4909.8872-.4079.005-1.6728.0188-2.56-.8872-.5924-.6049-.7944-1.3917-.8634-1.664-.0891-.3489-.118-.6488-.1255-.8609m3.594-14.1629v3.3268m0 17.5585v-2.8323"/>
    <path fill="#DFFEA1" stroke="#0B0D08" stroke-miterlimit="10" stroke-width="2.5098" d="M54.8097 32.1687c0 12.1437-9.8585 22.0022-22.0022 22.0022 0-12.1437 9.8585-22.0022 22.0022-22.0022ZM32.8075 54.1709c-12.1437 0-22.0022-9.8585-22.0022-22.0022 12.1437 0 22.0022 9.8585 22.0022 22.0022Z"/>
  </g>
  <defs>
    <clipPath id="a">
      <path fill="#fff" d="M.5.5h64v64H.5z"/>
    </clipPath>
  </defs>
</svg>
