<svg xmlns="http://www.w3.org/2000/svg" width="65" height="64" fill="none">
  <g clip-path="url(#a)">
    <path fill="#DFFEA1" d="M32.5 64c17.6731 0 32-14.3269 32-32 0-17.6731-14.3269-32-32-32C14.8269 0 .5 14.3269.5 32c0 17.6731 14.3269 32 32 32Z"/>
    <path fill="#0B0D08" d="M14.4357 31.7891c-2.0367 2.0367-5.3371 2.0367-7.37381 0 2.03671-2.0367 5.33711-2.0367 7.37381 0Zm2.6265 6.2846c0 2.88-2.3341 5.2141-5.2141 5.2141 0-2.8799 2.3341-5.2141 5.2141-5.2141Zm0-12.5352c0-2.88-2.3341-5.2142-5.2141-5.2142 0 2.88 2.3341 5.2142 5.2141 5.2142Zm33.5523 6.2858c2.0367-2.0367 5.3371-2.0367 7.3738 0-2.0367 2.0367-5.3371 2.0367-7.3738 0Zm-2.6277-6.2845c0-2.88 2.3341-5.2141 5.2141-5.2141 0 2.88-2.3341 5.2141-5.2141 5.2141Zm0 12.5352c0 2.88 2.3341 5.2141 5.2141 5.2141 0-2.88-2.3341-5.2141-5.2141-5.2141Z"/>
    <path fill="#0B0D08" stroke="#0B0D08" stroke-linecap="round" stroke-linejoin="round" stroke-width="1.09427" d="M40.9731 30.3071c-2.565-.399-5.1288-.7993-7.6938-1.1984.143-.8634.2685-1.7518.3739-2.6642.5447-4.7586.3928-9.1244-.0916-12.948-1.9802 2.8875-4.1537 6.5631-6.0599 11.0255-1.5372 3.5966-2.575 6.9434-3.2878 9.8472 2.5763.3878 5.1526.7756 7.7277 1.1633-.4029 1.3114-.7781 2.7043-1.1081 4.1763-.9701 4.327-1.3227 8.305-1.3603 11.7459 2.2814-2.6516 4.938-6.228 7.3198-10.7846 1.9978-3.8224 3.3054-7.3838 4.1801-10.363Z"/>
  </g>
  <defs>
    <clipPath id="a">
      <path fill="#fff" d="M.5 0h64v64H.5z"/>
    </clipPath>
  </defs>
</svg>
