<svg width="119" height="24" viewBox="0 0 119 24" fill="none" xmlns="http://www.w3.org/2000/svg">
<path d="M31.0783 9.552C31.0783 8.89067 31.2436 8.30933 31.5743 7.808C31.9049 7.30667 32.3689 6.91733 32.9663 6.64C33.5743 6.36267 34.2729 6.224 35.0623 6.224C35.7983 6.224 36.4383 6.35733 36.9823 6.624C37.5369 6.88 37.9689 7.248 38.2783 7.728C38.5983 8.208 38.7796 8.784 38.8223 9.456H37.2383C37.1956 8.88 36.9823 8.432 36.5983 8.112C36.2143 7.792 35.6969 7.632 35.0463 7.632C34.3209 7.632 33.7396 7.80267 33.3023 8.144C32.8649 8.47467 32.6463 8.928 32.6463 9.504C32.6463 9.97333 32.7796 10.352 33.0463 10.64C33.3129 10.9173 33.7183 11.12 34.2623 11.248L36.1663 11.696C37.1156 11.9093 37.8249 12.2773 38.2943 12.8C38.7743 13.312 39.0143 13.9733 39.0143 14.784C39.0143 15.4773 38.8436 16.08 38.5023 16.592C38.1716 17.104 37.6969 17.4987 37.0783 17.776C36.4703 18.0533 35.7556 18.192 34.9343 18.192C34.1556 18.192 33.4676 18.064 32.8703 17.808C32.2836 17.5413 31.8196 17.168 31.4783 16.688C31.1476 16.1973 30.9609 15.6267 30.9183 14.976H32.5182C32.5289 15.5307 32.7529 15.9733 33.1903 16.304C33.6276 16.624 34.2089 16.784 34.9343 16.784C35.7023 16.784 36.3103 16.6133 36.7583 16.272C37.2169 15.9307 37.4463 15.4773 37.4463 14.912C37.4463 14.4533 37.3183 14.08 37.0623 13.792C36.8063 13.504 36.4009 13.296 35.8463 13.168L33.9423 12.736C33.0036 12.5227 32.2889 12.1493 31.7983 11.616C31.3183 11.072 31.0783 10.384 31.0783 9.552ZM49.5766 6.432L42.2326 15.744V13.392L47.7046 6.432H49.5766ZM42.5526 6.432V18H40.9846V6.432H42.5526ZM44.5846 12.544L45.6086 11.2L49.6406 18H47.8166L44.5846 12.544ZM54.0019 13.296L50.0819 6.432H51.8419L54.4179 11.056C54.4925 11.1947 54.5565 11.3227 54.6099 11.44C54.6739 11.5573 54.7379 11.6853 54.8019 11.824C54.8552 11.728 54.8925 11.648 54.9139 11.584C54.9459 11.5093 54.9779 11.4347 55.0099 11.36C55.0525 11.2853 55.1112 11.184 55.1859 11.056L57.7459 6.432H59.4579L55.5699 13.296V18H54.0019V13.296ZM63.305 18L59.865 6.432H61.497L63.609 13.504C63.6943 13.8027 63.7743 14.1173 63.849 14.448C63.9237 14.7787 64.0037 15.1627 64.089 15.6C64.185 15.1307 64.2757 14.7413 64.361 14.432C64.457 14.1227 64.5477 13.8133 64.633 13.504L66.825 6.432H68.521L70.697 13.504C70.793 13.8133 70.8837 14.1333 70.969 14.464C71.0543 14.7947 71.1397 15.1733 71.225 15.6C71.3317 15.1093 71.4223 14.704 71.497 14.384C71.5823 14.064 71.6623 13.776 71.737 13.52L73.865 6.432H75.465L71.977 18H70.473L67.673 8.848L64.841 18H63.305ZM87.0885 12.208C87.0885 13.3813 86.8485 14.4213 86.3685 15.328C85.8992 16.224 85.2432 16.928 84.4005 17.44C83.5685 17.9413 82.6032 18.192 81.5045 18.192C80.4272 18.192 79.4672 17.9413 78.6245 17.44C77.7925 16.928 77.1418 16.224 76.6725 15.328C76.2032 14.432 75.9685 13.392 75.9685 12.208C75.9685 11.0347 76.2032 10 76.6725 9.104C77.1525 8.208 77.8085 7.504 78.6405 6.992C79.4725 6.48 80.4325 6.224 81.5205 6.224C82.6192 6.224 83.5845 6.48 84.4165 6.992C85.2485 7.504 85.8992 8.208 86.3685 9.104C86.8485 10 87.0885 11.0347 87.0885 12.208ZM85.4405 12.208C85.4405 11.312 85.2752 10.528 84.9445 9.856C84.6245 9.184 84.1712 8.66667 83.5845 8.304C82.9978 7.93067 82.3098 7.744 81.5205 7.744C80.7418 7.744 80.0592 7.93067 79.4725 8.304C78.8858 8.66667 78.4272 9.184 78.0965 9.856C77.7765 10.528 77.6165 11.312 77.6165 12.208C77.6165 13.104 77.7765 13.888 78.0965 14.56C78.4272 15.232 78.8858 15.7547 79.4725 16.128C80.0592 16.5013 80.7418 16.688 81.5205 16.688C82.3098 16.688 82.9978 16.5013 83.5845 16.128C84.1712 15.744 84.6245 15.216 84.9445 14.544C85.2752 13.872 85.4405 13.0933 85.4405 12.208ZM90.662 18H89.094V6.432H93.462C94.6993 6.432 95.6647 6.74133 96.358 7.36C97.062 7.968 97.414 8.816 97.414 9.904C97.414 10.704 97.2167 11.3813 96.822 11.936C96.438 12.4907 95.8887 12.8853 95.174 13.12L97.526 18H95.782L93.622 13.424H90.662V18ZM90.662 7.84V12.032H93.478C94.2033 12.032 94.7633 11.8453 95.158 11.472C95.5633 11.0987 95.766 10.5813 95.766 9.92C95.766 9.248 95.558 8.736 95.142 8.384C94.7367 8.02133 94.1767 7.84 93.462 7.84H90.662ZM103.343 7.152V18H101.775V7.152H103.343ZM98.2865 7.872V6.432H106.815V7.872H98.2865ZM109.959 18H108.391V6.432H109.959V11.408H115.687V6.432H117.255V18H115.687V12.864H109.959V18Z" fill="#0B0D08"/>
<path d="M12 5.49867C10.52 4.01867 10.52 1.61867 12 0.138672C13.48 1.61867 13.48 4.01867 12 5.49867Z" fill="#0B0D08"/>
<path d="M7.43148 7.40895C5.3383 7.40895 3.64136 5.71201 3.64136 3.61884C5.73453 3.61884 7.43148 5.31578 7.43148 7.40895Z" fill="#0B0D08"/>
<path d="M16.5444 7.40895C18.6376 7.40895 20.3346 5.71201 20.3346 3.61884C18.2414 3.61884 16.5444 5.31578 16.5444 7.40895Z" fill="#0B0D08"/>
<path d="M20.3812 20.3812C18.288 20.3812 16.5911 18.6843 16.5911 16.5911C18.6842 16.5911 20.3812 18.2881 20.3812 20.3812Z" fill="#0B0D08"/>
<path d="M3.63013 20.3699C5.7233 20.3699 7.42024 18.6729 7.42024 16.5798C5.32707 16.5798 3.63013 18.2767 3.63013 20.3699Z" fill="#0B0D08"/>
<path d="M18.5129 12C19.9929 10.52 22.3929 10.52 23.8729 12C22.3929 13.48 19.9929 13.48 18.5129 12Z" fill="#0B0D08"/>
<path d="M0.126587 12C1.60659 10.52 4.00659 10.52 5.48659 12C4.00659 13.48 1.60659 13.48 0.126587 12Z" fill="#0B0D08"/>
<path d="M12 14.5041C13.3829 14.5041 14.504 13.383 14.504 12.0001C14.504 10.6172 13.3829 9.49609 12 9.49609C10.6171 9.49609 9.49597 10.6172 9.49597 12.0001C9.49597 13.383 10.6171 14.5041 12 14.5041Z" fill="#0B0D08"/>
<path d="M12 16.3403C14.3971 16.3403 16.3403 14.3971 16.3403 12.0001C16.3403 9.60304 14.3971 7.65985 12 7.65985C9.60298 7.65985 7.65979 9.60304 7.65979 12.0001C7.65979 14.3971 9.60298 16.3403 12 16.3403Z" fill="#0B0D08"/>
<path d="M14.6894 20.417H9.31006V22.6372H14.6894V20.417Z" fill="#0B0D08"/>
</svg>
