<svg width="64" height="64" viewBox="0 0 64 64" fill="none" xmlns="http://www.w3.org/2000/svg">
<path d="M32 14.6631C28.0534 10.7164 28.0534 4.31642 32 0.369751C35.9467 4.31642 35.9467 10.7164 32 14.6631Z" fill="#0B0D08"/>
<path d="M19.8174 19.7574C14.2356 19.7574 9.71045 15.2322 9.71045 9.65039C15.2923 9.65039 19.8174 14.1756 19.8174 19.7574Z" fill="#0B0D08"/>
<path d="M44.1187 19.7574C49.7005 19.7574 54.2256 15.2322 54.2256 9.65039C48.6438 9.65039 44.1187 14.1756 44.1187 19.7574Z" fill="#0B0D08"/>
<path d="M54.3498 54.3499C48.768 54.3499 44.2428 49.8247 44.2428 44.2429C49.8246 44.2429 54.3498 48.7681 54.3498 54.3499Z" fill="#0B0D08"/>
<path d="M9.6803 54.3199C15.2621 54.3199 19.7873 49.7947 19.7873 44.2129C14.2055 44.2129 9.6803 48.7381 9.6803 54.3199Z" fill="#0B0D08"/>
<path d="M49.3678 31.9997C53.3145 28.053 59.7145 28.053 63.6611 31.9997C59.7145 35.9463 53.3145 35.9463 49.3678 31.9997Z" fill="#0B0D08"/>
<path d="M0.337524 31.9997C4.28419 28.053 10.6842 28.053 14.6309 31.9997C10.6842 35.9463 4.28419 35.9463 0.337524 31.9997Z" fill="#0B0D08"/>
<path d="M32 38.6775C35.6878 38.6775 38.6773 35.688 38.6773 32.0002C38.6773 28.3124 35.6878 25.3229 32 25.3229C28.3122 25.3229 25.3226 28.3124 25.3226 32.0002C25.3226 35.688 28.3122 38.6775 32 38.6775Z" fill="#0B0D08"/>
<path d="M32.0001 43.5744C38.3922 43.5744 43.5741 38.3926 43.5741 32.0005C43.5741 25.6084 38.3922 20.4265 32.0001 20.4265C25.608 20.4265 20.4261 25.6084 20.4261 32.0005C20.4261 38.3926 25.608 43.5744 32.0001 43.5744Z" fill="#0B0D08"/>
<path d="M39.1718 54.4453H24.827V60.3659H39.1718V54.4453Z" fill="#0B0D08"/>
</svg>
