<svg width="96" height="20" viewBox="0 0 96 20" fill="none" xmlns="http://www.w3.org/2000/svg">
<g clip-path="url(#clip0_596_507)">
<path d="M15.1388 8.54622C14.8624 8.82423 14.6509 9.15977 14.519 9.52885C14.3872 9.898 14.3384 10.2916 14.3761 10.6818L14.363 10.6687C14.4018 11.1279 14.3398 11.5901 14.1815 12.0229C14.0232 12.4557 13.7724 12.8488 13.4466 13.1747C13.1207 13.5006 12.7276 13.7514 12.2947 13.9097C11.8619 14.0679 11.3997 14.1299 10.9405 14.0911L10.9537 14.1043C10.4044 14.0531 9.85263 14.1726 9.37368 14.4466C8.8948 14.7205 8.51201 15.1354 8.2776 15.6349C8.04319 16.1343 7.96846 16.6939 8.06368 17.2373C8.15897 17.7807 8.41949 18.2816 8.80978 18.6715C9.20008 19.0614 9.70112 19.3215 10.2446 19.4162C10.7882 19.511 11.3476 19.4358 11.8468 19.2009C12.3461 18.966 12.7606 18.5829 13.0341 18.1037C13.3076 17.6246 13.4267 17.0728 13.3751 16.5235L13.3889 16.5366C13.3501 16.0774 13.412 15.6152 13.5703 15.1823C13.7286 14.7495 13.9795 14.3565 14.3053 14.0305C14.6312 13.7047 15.0243 13.4538 15.4571 13.2956C15.89 13.1373 16.3521 13.0753 16.8114 13.1141L16.7975 13.101C17.2462 13.1413 17.6979 13.0677 18.1107 12.8871C18.5233 12.7064 18.8838 12.4245 19.1585 12.0674C19.4333 11.7104 19.6135 11.2897 19.6823 10.8445C19.7512 10.3992 19.7066 9.94379 19.5526 9.52032C19.3986 9.09692 19.1402 8.71924 18.8014 8.42227C18.4626 8.1253 18.0543 7.91867 17.6143 7.82155C17.1744 7.72444 16.717 7.73989 16.2847 7.86654C15.8523 7.99326 15.4589 8.22702 15.141 8.54622H15.1388Z" fill="#2F302D"/>
<path d="M9.75937 12.3862L9.74552 12.3731C10.1358 12.4124 10.53 12.3645 10.8996 12.2328C11.2691 12.1012 11.6048 11.8891 11.8823 11.6118C12.1597 11.3345 12.3722 10.999 12.504 10.6295C12.636 10.2601 12.6842 9.86598 12.6452 9.47561L12.6591 9.48874C12.6203 9.02947 12.6822 8.56736 12.8405 8.13448C12.9988 7.70168 13.2496 7.30862 13.5755 6.9827C13.9014 6.65686 14.2945 6.40597 14.7273 6.24775C15.1601 6.08943 15.6222 6.02751 16.0815 6.06628L16.0677 6.05315C16.6171 6.10477 17.1689 5.98561 17.6481 5.712C18.1273 5.43839 18.5104 5.02362 18.7452 4.52427C18.98 4.02493 19.055 3.46532 18.9601 2.92175C18.8651 2.37819 18.6048 1.87716 18.2146 1.48698C17.8245 1.09681 17.3234 0.836489 16.7799 0.741544C16.2363 0.646591 15.6767 0.721624 15.1773 0.956414C14.678 1.1912 14.2633 1.57431 13.9896 2.05349C13.716 2.53266 13.5968 3.08458 13.6485 3.63395L13.6353 3.6201C13.6742 4.07936 13.6124 4.54158 13.4542 4.97447C13.2959 5.40736 13.045 5.80049 12.7192 6.12643C12.3933 6.45227 12.0002 6.70316 11.5673 6.86138C11.1343 7.01959 10.6721 7.08142 10.2129 7.04256L10.226 7.05641C9.83571 7.01712 9.44148 7.06502 9.07196 7.1967C8.70245 7.3283 8.36676 7.54047 8.08926 7.81776C7.81176 8.09504 7.59937 8.43058 7.4674 8.80002C7.3355 9.16946 7.28731 9.56355 7.32632 9.95391L7.31319 9.94079C7.35184 10.4 7.28979 10.8621 7.1315 11.2949C6.97313 11.7276 6.72232 12.1207 6.39648 12.4465C6.07061 12.7724 5.67759 13.0232 5.24481 13.1816C4.81204 13.3398 4.34994 13.4019 3.89073 13.3633L3.90386 13.3764C3.35448 13.3248 2.80257 13.4439 2.32339 13.7175C1.84421 13.9912 1.4611 14.4059 1.22632 14.9053C0.991527 15.4046 0.916487 15.9642 1.01144 16.5078C1.10639 17.0513 1.36671 17.5524 1.75689 17.9425C2.14706 18.3327 2.6481 18.593 3.19166 18.688C3.73522 18.7829 4.29484 18.7079 4.79418 18.4731C5.29353 18.2383 5.7083 17.8552 5.9819 17.3761C6.25554 16.8968 6.37468 16.345 6.32306 15.7956L6.33691 15.8087C6.29812 15.3494 6.3601 14.8873 6.51839 14.4544C6.6766 14.0216 6.92749 13.6286 7.25333 13.3027C7.57925 12.9768 7.97231 12.7259 8.40511 12.5677C8.83799 12.4094 9.3001 12.3474 9.75937 12.3862Z" fill="#2F302D"/>
<path d="M4.87396 10.9228C5.15031 10.6448 5.36188 10.3093 5.49359 9.94013C5.6253 9.57098 5.67389 9.17725 5.63589 8.78718L5.64973 8.8003C5.61094 8.34096 5.67289 7.87863 5.83126 7.44568C5.98963 7.01273 6.24061 6.6196 6.56667 6.29368C6.89273 5.96778 7.28594 5.71697 7.71896 5.55879C8.15198 5.4006 8.61432 5.33885 9.07366 5.37784L9.0598 5.36472C9.60897 5.41617 10.1607 5.29697 10.6396 5.02338C11.1186 4.74979 11.5015 4.33512 11.7362 3.83593C11.9708 3.33674 12.0457 2.77732 11.9508 2.23397C11.8559 1.69061 11.5956 1.18977 11.2056 0.799734C10.8156 0.409702 10.3147 0.149466 9.77135 0.0545211C9.22801 -0.0404314 8.66856 0.0345361 8.16941 0.26918C7.67019 0.503823 7.25554 0.886732 6.98198 1.36569C6.70834 1.84464 6.58913 2.39633 6.6406 2.94552L6.62748 2.93239C6.66627 3.39163 6.6043 3.85379 6.446 4.28662C6.28771 4.71945 6.03691 5.11252 5.71103 5.43841C5.38515 5.76429 4.99207 6.01513 4.55924 6.17338C4.12641 6.33167 3.66425 6.39364 3.20502 6.35485L3.21814 6.36798C2.76942 6.32773 2.3178 6.40144 1.90514 6.58219C1.49248 6.76294 1.13211 7.04496 0.857447 7.40208C0.582783 7.75913 0.402706 8.17983 0.333892 8.62502C0.265086 9.07029 0.309773 9.5257 0.463813 9.94902C0.617853 10.3724 0.876273 10.75 1.21511 11.0469C1.55396 11.3439 1.96226 11.5504 2.40219 11.6476C2.84212 11.7446 3.29944 11.7291 3.73178 11.6024C4.16412 11.4757 4.55748 11.242 4.87541 10.9228H4.87396Z" fill="#2F302D"/>
<path d="M27.4585 3.65034H29.624V14.1882H27.4585V3.65034Z" fill="#2F302D"/>
<path d="M30.8512 10.5786C30.8482 9.82133 31.07 9.08012 31.4885 8.44899C31.907 7.81787 32.5034 7.32514 33.2022 7.03327C33.901 6.74134 34.6706 6.66339 35.4138 6.80929C36.1569 6.95519 36.84 7.31828 37.3765 7.85272C37.9131 8.38709 38.279 9.06874 38.4278 9.81127C38.5767 10.5538 38.5018 11.3238 38.2127 12.0238C37.9237 12.7236 37.4333 13.3221 36.8039 13.7431C36.1744 14.1642 35.4342 14.3889 34.6768 14.3889C34.1742 14.3947 33.6754 14.3001 33.2096 14.1109C32.7439 13.9216 32.3206 13.6414 31.9644 13.2867C31.6081 12.9319 31.3263 12.5096 31.1352 12.0447C30.944 11.5797 30.8475 11.0813 30.8512 10.5786ZM36.337 10.5786C36.328 10.2522 36.2229 9.93566 36.035 9.66858C35.8471 9.40158 35.5846 9.19583 35.2804 9.0772C34.9761 8.9585 34.6437 8.9321 34.3246 9.00137C34.0055 9.07064 33.7138 9.23235 33.4861 9.46647C33.2585 9.70052 33.1048 9.99654 33.0445 10.3175C32.9841 10.6384 33.0196 10.97 33.1467 11.2708C33.2738 11.5716 33.4867 11.8283 33.7588 12.0087C34.031 12.1892 34.3503 12.2854 34.6768 12.2854C34.9005 12.2914 35.1229 12.251 35.3302 12.1667C35.5374 12.0824 35.7249 11.9561 35.8809 11.7958C36.0369 11.6354 36.158 11.4444 36.2364 11.2349C36.3149 11.0255 36.3492 10.802 36.337 10.5786Z" fill="#2F302D"/>
<path d="M47.133 6.97035V13.824C47.133 16.2491 45.2417 17.2742 43.3219 17.2742C42.6461 17.3248 41.9692 17.1882 41.3657 16.8796C40.7623 16.5709 40.2555 16.102 39.9009 15.5243L41.7485 14.4562C41.8975 14.7573 42.135 15.0057 42.4291 15.1682C42.7232 15.3307 43.0599 15.3995 43.3941 15.3654C43.6078 15.395 43.8253 15.3762 44.0307 15.3103C44.236 15.2445 44.424 15.1333 44.5806 14.9851C44.7372 14.8368 44.8585 14.6552 44.9355 14.4537C45.0124 14.2522 45.043 14.036 45.0251 13.8211V13.1613C44.7716 13.4715 44.4489 13.718 44.0828 13.881C43.7167 14.0439 43.3176 14.1188 42.9173 14.0996C41.9649 14.0696 41.0616 13.6702 40.3986 12.9858C39.7355 12.3016 39.3647 11.3861 39.3647 10.4333C39.3647 9.48047 39.7355 8.565 40.3986 7.88072C41.0616 7.19638 41.9649 6.79697 42.9173 6.76693C43.3176 6.74776 43.7167 6.82264 44.0828 6.98559C44.4489 7.14855 44.7716 7.39506 45.0251 7.7053V6.96889L47.133 6.97035ZM45.0259 10.4344C45.0405 10.0854 44.9502 9.74004 44.7668 9.44278C44.5835 9.14545 44.3153 8.90987 43.9969 8.76631C43.6785 8.62267 43.3244 8.57768 42.9802 8.63703C42.636 8.69638 42.3174 8.85737 42.0655 9.09937C41.8135 9.34129 41.6398 9.65305 41.5665 9.99457C41.4933 10.3361 41.5239 10.6918 41.6546 11.0157C41.7852 11.3396 42.0098 11.6171 42.2994 11.8124C42.589 12.0077 42.9304 12.1118 43.2797 12.1113C43.5072 12.1272 43.7355 12.0953 43.9499 12.0176C44.1644 11.9398 44.3601 11.818 44.5246 11.6601C44.6891 11.5021 44.8187 11.3114 44.9051 11.1003C44.9914 10.8892 45.0326 10.6624 45.0259 10.4344Z" fill="#2F302D"/>
<path d="M48.359 10.5786C48.356 9.82133 48.5777 9.08012 48.9963 8.44899C49.4148 7.81787 50.0112 7.32514 50.71 7.03327C51.4088 6.74134 52.1785 6.66339 52.9216 6.80929C53.6647 6.95519 54.3478 7.31828 54.8843 7.85272C55.4209 8.38709 55.7868 9.06874 55.9356 9.81127C56.0845 10.5538 56.0097 11.3238 55.7206 12.0238C55.4315 12.7236 54.9411 13.3221 54.3117 13.7431C53.6822 14.1642 52.942 14.3889 52.1846 14.3889C51.682 14.3947 51.1831 14.3001 50.7175 14.1109C50.2517 13.9216 49.8284 13.6414 49.4722 13.2867C49.116 12.9319 48.8341 12.5096 48.643 12.0447C48.4518 11.5797 48.3553 11.0813 48.359 10.5786ZM53.8448 10.5786C53.8358 10.2522 53.7307 9.93566 53.5428 9.66858C53.3549 9.40158 53.0924 9.19583 52.7882 9.0772C52.484 8.9585 52.1515 8.9321 51.8324 9.00137C51.5133 9.07064 51.2216 9.23235 50.9939 9.46647C50.7663 9.70052 50.6126 9.99654 50.5522 10.3175C50.4919 10.6384 50.5274 10.97 50.6545 11.2708C50.7816 11.5716 50.9945 11.8283 51.2666 12.0087C51.5388 12.1892 51.8581 12.2854 52.1846 12.2854C52.4083 12.2914 52.6307 12.251 52.8379 12.1667C53.0452 12.0824 53.2328 11.9561 53.3887 11.7958C53.5447 11.6354 53.6658 11.4444 53.7442 11.2349C53.8227 11.0255 53.857 10.802 53.8448 10.5786Z" fill="#2F302D"/>
<path d="M57.0205 5.03642C57.0205 4.77944 57.0967 4.52824 57.2395 4.31458C57.3822 4.10092 57.5852 3.93438 57.8226 3.83604C58.06 3.7377 58.3212 3.71197 58.5733 3.7621C58.8253 3.81224 59.0568 3.93598 59.2385 4.11769C59.4202 4.29939 59.544 4.5309 59.5941 4.78294C59.6442 5.03498 59.6185 5.29622 59.5202 5.53363C59.4218 5.77105 59.2553 5.97396 59.0416 6.11675C58.828 6.25951 58.5768 6.3357 58.3198 6.3357C57.9763 6.33227 57.6478 6.19432 57.4048 5.95137C57.162 5.70844 57.0239 5.37995 57.0205 5.03642ZM57.2392 6.97076H59.4054V14.189H57.2363L57.2392 6.97076Z" fill="#2F302D"/>
<path d="M68.756 10.5791C68.781 11.0562 68.7116 11.5334 68.5514 11.9835C68.3914 12.4336 68.1439 12.8476 67.8233 13.2017C67.5027 13.5558 67.1152 13.843 66.6832 14.0469C66.2511 14.2507 65.7831 14.3671 65.3059 14.3894C64.9046 14.4113 64.5035 14.3437 64.1316 14.1913C63.7596 14.039 63.4264 13.8058 63.1557 13.5087V17.0748H60.9902V6.96998H63.1557V7.64805C63.4264 7.35116 63.7598 7.11813 64.1317 6.96597C64.5036 6.81373 64.9046 6.74614 65.3059 6.76801C65.7831 6.79025 66.2513 6.90662 66.6834 7.11048C67.1156 7.31434 67.5031 7.60161 67.8238 7.95581C68.1444 8.31002 68.3919 8.72415 68.5519 9.17438C68.7118 9.62453 68.7813 10.102 68.756 10.5791ZM66.5906 10.5791C66.5821 10.2413 66.4742 9.91348 66.2803 9.63664C66.0864 9.35987 65.8153 9.14638 65.5008 9.02302C65.1861 8.89958 64.8421 8.87165 64.5118 8.94281C64.1814 9.0139 63.8794 9.18087 63.6435 9.42279C63.4075 9.66478 63.2482 9.97086 63.1855 10.303C63.1227 10.635 63.1592 10.9781 63.2905 11.2895C63.4218 11.6009 63.642 11.8666 63.9236 12.0535C64.2052 12.2403 64.5355 12.34 64.8735 12.3399C65.1055 12.3503 65.3371 12.3114 65.553 12.2259C65.7689 12.1406 65.9644 12.0104 66.1265 11.8442C66.2886 11.6779 66.4138 11.4793 66.4937 11.2613C66.5737 11.0432 66.6067 10.8107 66.5906 10.5791Z" fill="#2F302D"/>
<path d="M75.4381 12.022C75.4381 13.6822 73.9952 14.3894 72.4364 14.3894C71.8064 14.4465 71.174 14.3133 70.6207 14.007C70.0674 13.7008 69.6187 13.2356 69.3325 12.6716L71.2085 11.6035C71.2844 11.8642 71.4475 12.091 71.6703 12.2459C71.8932 12.4009 72.1629 12.4748 72.4334 12.4551C72.9526 12.4551 73.2129 12.2962 73.2129 12.0082C73.2129 11.2134 69.6613 11.6327 69.6613 9.13545C69.6613 7.56129 70.9898 6.76801 72.491 6.76801C73.0554 6.75015 73.6139 6.88402 74.1089 7.15561C74.604 7.42728 75.0174 7.82669 75.3054 8.31228L73.4578 9.30825C73.3769 9.11919 73.242 8.95813 73.07 8.84519C72.8979 8.73225 72.6967 8.67246 72.491 8.67319C72.1155 8.67319 71.8844 8.81901 71.8844 9.07712C71.8873 9.90029 75.4381 9.35126 75.4381 12.022Z" fill="#2F302D"/>
<path d="M83.348 6.97054V14.1888H81.1825V13.51C80.9324 13.8095 80.6153 14.0455 80.2565 14.1986C79.8978 14.3517 79.5085 14.4176 79.1191 14.3907C77.6609 14.3907 76.4214 13.3517 76.4214 11.4014V6.97054H78.5869V11.0842C78.5686 11.2561 78.5883 11.4299 78.6445 11.5935C78.6999 11.7571 78.791 11.9066 78.9106 12.0315C79.0302 12.1564 79.1753 12.2537 79.3364 12.3168C79.4968 12.3798 79.6696 12.4071 79.8424 12.3966C80.6364 12.3966 81.1847 11.9351 81.1847 10.9099V6.97272L83.348 6.97054Z" fill="#2F302D"/>
<path d="M95.7651 9.75639V14.1879H93.5996V9.94377C93.5996 9.22195 93.2533 8.76042 92.5606 8.76042C91.8388 8.76042 91.4341 9.26569 91.4341 10.1173V14.1879H89.2694V9.94377C89.2694 9.22195 88.9231 8.76042 88.2297 8.76042C87.5079 8.76042 87.1039 9.26569 87.1039 10.1173V14.1879H84.9385V6.96971H87.1039V7.63321C87.3285 7.33886 87.6231 7.1054 87.9607 6.95426C88.299 6.80304 88.6694 6.73895 89.0383 6.76775C89.4087 6.74959 89.7776 6.82783 90.1093 6.99472C90.4404 7.16154 90.7225 7.41148 90.9289 7.71997C91.1688 7.39719 91.4866 7.14054 91.8527 6.97401C92.2187 6.80748 92.6212 6.73654 93.0222 6.76775C94.6794 6.76848 95.7651 7.95183 95.7651 9.75639Z" fill="#2F302D"/>
</g>
<defs>
<clipPath id="clip0_596_507">
<rect width="96" height="19.443" fill="white" transform="translate(0 0.0136986)"/>
</clipPath>
</defs>
</svg>
