<svg width="96" height="19" viewBox="0 0 96 19" fill="none" xmlns="http://www.w3.org/2000/svg">
<g clip-path="url(#clip0_596_504)">
<path d="M8.52491 18.2338C13.345 18.2338 17.2522 14.3266 17.2522 9.50649V3.3974C17.2522 2.70302 16.9763 2.03707 16.4853 1.54607C15.9943 1.05506 15.3284 0.779221 14.634 0.779221L8.96127 0.779221V4.60788C8.96127 5.48148 9.01451 6.38649 9.47269 7.13006C9.8007 7.66295 10.2395 8.11905 10.7593 8.46742C11.2791 8.81579 11.8678 9.04828 12.4853 9.14911L12.6525 9.17617C12.7214 9.19972 12.7812 9.24422 12.8235 9.30346C12.8659 9.36269 12.8887 9.43368 12.8887 9.50649C12.8887 9.57931 12.8659 9.6503 12.8235 9.70953C12.7812 9.76876 12.7214 9.81327 12.6525 9.83682L12.4853 9.86388C11.583 10.0113 10.7498 10.4384 10.1033 11.0849C9.45679 11.7314 9.02969 12.5646 8.88229 13.4669L8.85523 13.6341C8.83168 13.703 8.78718 13.7628 8.72794 13.8051C8.66871 13.8475 8.59772 13.8702 8.52491 13.8702C8.45209 13.8702 8.3811 13.8475 8.32187 13.8051C8.26264 13.7628 8.21813 13.703 8.19458 13.6341L8.16752 13.4669C8.06667 12.8494 7.83417 12.2607 7.4858 11.7409C7.13743 11.2211 6.68134 10.7823 6.14847 10.4543C5.4049 9.99609 4.49989 9.94286 3.62629 9.94286H-0.191895C0.0363236 14.56 3.85145 18.2338 8.52491 18.2338Z" fill="#2F302D"/>
<path d="M-0.202148 9.07013H3.62651C4.50011 9.07013 5.40512 9.01689 6.14869 8.55871C6.72993 8.20059 7.21922 7.7113 7.57734 7.13006C8.03552 6.38649 8.08876 5.48148 8.08876 4.60788V0.779221H2.41603C1.72165 0.779221 1.0557 1.05506 0.564699 1.54607C0.0736949 2.03707 -0.202148 2.70302 -0.202148 3.3974L-0.202148 9.07013ZM92.1808 6.06097C94.6205 6.06097 95.7979 7.76497 95.7979 9.73864V13.4455H93.2447V10.1785C93.2447 9.28395 92.9183 8.54562 91.9823 8.54562C91.0463 8.54562 90.7343 9.28395 90.7343 10.1785V13.4451H88.1811V10.1785C88.1811 9.28395 87.8691 8.54562 86.9327 8.54562C85.9967 8.54562 85.6703 9.28395 85.6703 10.1785V13.4451H83.1176V9.7382C83.1176 7.76453 84.2944 6.06053 86.7342 6.06053C88.0677 6.06053 89.032 6.58591 89.4719 7.45209C89.9397 6.58591 90.9612 6.06009 92.1808 6.06009V6.06097ZM78.5296 11.1734C79.3522 11.1734 79.7069 10.4207 79.7069 9.52569V6.3446H82.2597V9.83813C82.2597 11.9257 81.04 13.6585 78.5296 13.6585C76.0188 13.6585 74.7992 11.9261 74.7992 9.83813V6.3446H77.3523V9.52569C77.3523 10.4202 77.7066 11.1734 78.5296 11.1734ZM71.0451 13.6725C69.4424 13.6725 68.4069 13.1187 67.7968 12.0396L69.6409 11.0028C69.8962 11.457 70.2789 11.6844 70.9173 11.6844C71.4422 11.6844 71.6831 11.4998 71.6831 11.2725C71.6831 10.4063 67.9387 11.2869 67.9387 8.53209C67.9387 7.19682 69.0732 6.11769 71.0024 6.11769C72.6902 6.11769 73.6123 6.94111 74.0237 7.7366L72.1797 8.78737C72.0239 8.36148 71.5413 8.10577 71.0591 8.10577C70.6904 8.10577 70.4918 8.26199 70.4918 8.47493C70.4918 9.35551 74.2363 8.54606 74.2363 11.2157C74.2363 12.7068 72.7753 13.6725 71.0451 13.6725ZM62.125 16.7117H59.5718V9.88089C59.5718 7.7078 61.2029 6.13166 63.4725 6.13166C65.6853 6.13166 67.3731 7.82169 67.3731 9.88089C67.3731 12.153 65.8694 13.6585 63.6143 13.6585C63.0893 13.6585 62.5648 13.5023 62.125 13.2605V16.7117ZM63.4725 11.2585C64.2811 11.2585 64.82 10.6336 64.82 9.89486C64.82 9.14257 64.2811 8.53166 63.4725 8.53166C62.6639 8.53166 62.125 9.14257 62.125 9.8953C62.125 10.6336 62.6639 11.2585 63.4725 11.2585ZM57.0143 5.59231C56.1773 5.59231 55.4827 4.89631 55.4827 4.05849C55.4827 3.22068 56.1773 2.52468 57.0143 2.52468C57.8512 2.52468 58.5464 3.22068 58.5464 4.05849C58.5464 4.89631 57.8512 5.59231 57.0143 5.59231ZM55.7379 6.3446H58.2911V13.4455H55.7379V6.3446ZM50.8393 13.6585C48.6265 13.6585 46.9387 11.9545 46.9387 9.88089C46.9387 7.82169 48.6265 6.11769 50.8393 6.11769C53.0521 6.11769 54.74 7.82169 54.74 9.88089C54.74 11.9545 53.0521 13.6585 50.8393 13.6585ZM50.8393 11.2585C51.6479 11.2585 52.1868 10.6336 52.1868 9.89486C52.1868 9.14257 51.6479 8.51769 50.8393 8.51769C50.0307 8.51769 49.4918 9.14257 49.4918 9.89486C49.4918 10.6336 50.0307 11.2585 50.8393 11.2585ZM42.1177 16.9247C40.3592 16.9247 39.0824 16.1436 38.43 14.7516L40.5433 13.6157C40.7702 14.0988 41.1957 14.5958 42.0749 14.5958C42.9974 14.5958 43.607 14.0133 43.6781 12.9909C43.3378 13.2893 42.7984 13.5162 41.9903 13.5162C40.0184 13.5162 38.4296 11.9968 38.4296 9.8665C38.4296 7.80773 40.1179 6.13166 42.3307 6.13166C44.6002 6.13166 46.2313 7.70824 46.2313 9.88089V12.6928C46.2313 15.249 44.4579 16.9247 42.1177 16.9247ZM42.2879 11.1167C43.0537 11.1167 43.6354 10.5909 43.6354 9.80977C43.6354 9.04308 43.0541 8.53166 42.2879 8.53166C41.536 8.53166 40.9404 9.04308 40.9404 9.8102C40.9404 10.5913 41.536 11.1167 42.2879 11.1167ZM34.0991 13.6585C31.8863 13.6585 30.198 11.9545 30.198 9.88089C30.198 7.82169 31.8863 6.11769 34.0991 6.11769C36.3115 6.11769 37.9997 7.82169 37.9997 9.88089C37.9997 11.9545 36.3119 13.6585 34.0991 13.6585ZM34.0991 11.2585C34.9077 11.2585 35.4466 10.6336 35.4466 9.89486C35.4466 9.14257 34.9077 8.51769 34.0991 8.51769C33.2905 8.51769 32.7516 9.14257 32.7516 9.89486C32.7516 10.6336 33.2905 11.2585 34.0991 11.2585ZM25.549 3.85995V11.0311H29.776V13.4455H25.1942C23.5775 13.4455 22.9251 12.5933 22.9251 11.2441V3.85995H25.549Z" fill="#2F302D"/>
</g>
<defs>
<clipPath id="clip0_596_504">
<rect width="96" height="17.4545" fill="white" transform="translate(0 0.779579)"/>
</clipPath>
</defs>
</svg>
