<svg width="67" height="16" viewBox="0 0 67 16" fill="none" xmlns="http://www.w3.org/2000/svg">
<g clip-path="url(#clip0_596_237)">
<path d="M0.829102 11.6506L0.829103 3.88354L4.88446 6.04106V9.51462L8.12878 11.2622L11.373 9.51462V6.04106L15.4284 3.88354V11.6506L8.12878 15.5341L0.829102 11.6506Z" fill="#393A36"/>
<path fill-rule="evenodd" clip-rule="evenodd" d="M2.85679 4.96228L0.829102 3.88351L8.12878 0L15.4284 3.88351L13.4007 4.96228V10.6797L8.12878 13.5923L2.85678 10.6797L2.85679 4.96228ZM13.1811 5.07915L11.373 6.04102V6.01945L8.12878 4.27185L4.88446 6.01945V6.04102L3.07645 5.07915V10.5602L8.12878 13.3515L13.1811 10.5602V5.07915Z" fill="#393A36"/>
<path d="M19.3149 11.0365V4.51221H20.5997V9.91803H23.7142V11.0365H19.3149Z" fill="#393A36"/>
<path d="M26.4881 11.167C26.0079 11.167 25.5764 11.0738 25.1936 10.8874C24.8108 10.7009 24.5091 10.4307 24.2885 10.0765C24.0678 9.72233 23.9575 9.29669 23.9575 8.79961V8.65045C23.9575 8.15337 24.0678 7.72773 24.2885 7.37356C24.5091 7.0194 24.8108 6.74911 25.1936 6.56271C25.5764 6.37626 26.0079 6.28308 26.4881 6.28308C26.9682 6.28308 27.3997 6.37626 27.7826 6.56271C28.1654 6.74911 28.4671 7.0194 28.6877 7.37356C28.9083 7.72773 29.0186 8.15337 29.0186 8.65045V8.79961C29.0186 9.29669 28.9083 9.72233 28.6877 10.0765C28.4671 10.4307 28.1654 10.7009 27.7826 10.8874C27.3997 11.0738 26.9682 11.167 26.4881 11.167ZM26.4881 10.1231C26.8644 10.1231 27.1759 10.0082 27.4224 9.77823C27.669 9.54213 27.7923 9.20657 27.7923 8.77162V8.67844C27.7923 8.2435 27.669 7.91103 27.4224 7.68114C27.1824 7.44504 26.8709 7.32697 26.4881 7.32697C26.1117 7.32697 25.8003 7.44504 25.5537 7.68114C25.3071 7.91103 25.1839 8.2435 25.1839 8.67844V8.77162C25.1839 9.20657 25.3071 9.54213 25.5537 9.77823C25.8003 10.0082 26.1117 10.1231 26.4881 10.1231Z" fill="#393A36"/>
<path d="M29.479 8.74368V8.59456C29.479 8.10988 29.5795 7.69668 29.7807 7.35492C29.9818 7.00696 30.2479 6.74287 30.5788 6.56271C30.9162 6.37626 31.2828 6.28308 31.6786 6.28308C32.1198 6.28308 32.454 6.35766 32.6811 6.50678C32.9082 6.65589 33.0737 6.81125 33.1775 6.97281H33.3527V6.41355H34.5596V11.8567C34.5596 12.1736 34.4622 12.4252 34.2676 12.6117C34.0729 12.8043 33.8134 12.9006 33.4889 12.9006H30.2576V11.8754H33.0607C33.2424 11.8754 33.3332 11.7821 33.3332 11.5957V10.3934H33.158C33.0931 10.4928 33.0023 10.5953 32.8855 10.7009C32.7687 10.8004 32.613 10.8843 32.4183 10.9526C32.2237 11.021 31.9771 11.0552 31.6786 11.0552C31.2828 11.0552 30.9162 10.965 30.5788 10.7848C30.2479 10.5984 29.9818 10.3343 29.7807 9.99262C29.5795 9.64465 29.479 9.22835 29.479 8.74368ZM32.029 10.0299C32.4053 10.0299 32.72 9.91494 32.9731 9.68504C33.2262 9.45515 33.3527 9.13203 33.3527 8.71573V8.62251C33.3527 8.19996 33.2262 7.87689 32.9731 7.65319C32.7265 7.4233 32.4118 7.30833 32.029 7.30833C31.6527 7.30833 31.3379 7.4233 31.0849 7.65319C30.8319 7.87689 30.7053 8.19996 30.7053 8.62251V8.71573C30.7053 9.13203 30.8319 9.45515 31.0849 9.68504C31.3379 9.91494 31.6527 10.0299 32.029 10.0299Z" fill="#393A36"/>
<path d="M37.7783 11.167C37.2982 11.167 36.8667 11.0738 36.4838 10.8874C36.101 10.7009 35.7993 10.4307 35.5787 10.0765C35.3581 9.72233 35.2478 9.29669 35.2478 8.79961V8.65045C35.2478 8.15337 35.3581 7.72773 35.5787 7.37356C35.7993 7.0194 36.101 6.74911 36.4838 6.56271C36.8667 6.37626 37.2982 6.28308 37.7783 6.28308C38.2585 6.28308 38.69 6.37626 39.0728 6.56271C39.4556 6.74911 39.7573 7.0194 39.9779 7.37356C40.1986 7.72773 40.3089 8.15337 40.3089 8.65045V8.79961C40.3089 9.29669 40.1986 9.72233 39.9779 10.0765C39.7573 10.4307 39.4556 10.7009 39.0728 10.8874C38.69 11.0738 38.2585 11.167 37.7783 11.167ZM37.7783 10.1231C38.1547 10.1231 38.4661 10.0082 38.7127 9.77823C38.9593 9.54213 39.0826 9.20657 39.0826 8.77162V8.67844C39.0826 8.2435 38.9593 7.91103 38.7127 7.68114C38.4726 7.44504 38.1612 7.32697 37.7783 7.32697C37.402 7.32697 37.0906 7.44504 36.844 7.68114C36.5974 7.91103 36.4741 8.2435 36.4741 8.67844V8.77162C36.4741 9.20657 36.5974 9.54213 36.844 9.77823C37.0906 10.0082 37.402 10.1231 37.7783 10.1231Z" fill="#393A36"/>
<path d="M41.0026 11.0365V6.41357H42.2289V11.0365H41.0026ZM41.6157 5.873C41.3951 5.873 41.2069 5.80466 41.0512 5.66795C40.902 5.53123 40.8274 5.35103 40.8274 5.12738C40.8274 4.90368 40.902 4.72348 41.0512 4.58676C41.2069 4.45009 41.3951 4.38171 41.6157 4.38171C41.8428 4.38171 42.031 4.45009 42.1803 4.58676C42.3295 4.72348 42.4041 4.90368 42.4041 5.12738C42.4041 5.35103 42.3295 5.53123 42.1803 5.66795C42.031 5.80466 41.8428 5.873 41.6157 5.873Z" fill="#393A36"/>
<path d="M43.1501 12.9006V6.41355H44.3571V6.97281H44.5324C44.6424 6.7926 44.8143 6.63415 45.0482 6.49743C45.2818 6.35452 45.6159 6.28308 46.0507 6.28308C46.44 6.28308 46.8001 6.37626 47.1308 6.56271C47.4619 6.74287 47.7278 7.01006 47.929 7.36426C48.1302 7.71843 48.2307 8.14717 48.2307 8.65045V8.79961C48.2307 9.30289 48.1302 9.73164 47.929 10.0858C47.7278 10.44 47.4619 10.7103 47.1308 10.8967C46.8001 11.0769 46.44 11.167 46.0507 11.167C45.7584 11.167 45.5119 11.1328 45.3107 11.0645C45.116 11.0023 44.9572 10.9215 44.8341 10.8221C44.7171 10.7165 44.623 10.6109 44.5518 10.5052H44.3765V12.9006H43.1501ZM45.6807 10.1417C46.0636 10.1417 46.3783 10.0268 46.6248 9.79687C46.8778 9.56077 47.0043 9.21901 47.0043 8.77162V8.67844C47.0043 8.23105 46.8778 7.89239 46.6248 7.66249C46.3718 7.4264 46.0571 7.30833 45.6807 7.30833C45.3042 7.30833 44.9895 7.4264 44.7366 7.66249C44.4836 7.89239 44.3571 8.23105 44.3571 8.67844V8.77162C44.3571 9.21901 44.4836 9.56077 44.7366 9.79687C44.9895 10.0268 45.3042 10.1417 45.6807 10.1417Z" fill="#393A36"/>
<path d="M50.9236 11.167C50.2942 11.167 49.7783 11.0365 49.376 10.7755C48.9741 10.5145 48.7306 10.1417 48.646 9.65706L49.7753 9.37747C49.8207 9.59492 49.8953 9.76582 49.9989 9.89009C50.1095 10.0144 50.2424 10.1044 50.3983 10.1604C50.5602 10.2101 50.7354 10.235 50.9236 10.235C51.209 10.235 51.4201 10.1883 51.5565 10.0951C51.6925 9.99572 51.7607 9.87455 51.7607 9.73163C51.7607 9.58872 51.696 9.47999 51.566 9.40542C51.4365 9.32464 51.2289 9.2594 50.9431 9.20971L50.6707 9.16308C50.3331 9.10094 50.0248 9.01706 49.746 8.91144C49.4671 8.79961 49.243 8.64735 49.0742 8.45475C48.9059 8.2621 48.8213 8.01356 48.8213 7.70908C48.8213 7.24929 48.9965 6.89823 49.3471 6.65589C49.6972 6.40735 50.1582 6.28308 50.729 6.28308C51.2677 6.28308 51.7154 6.39805 52.072 6.62795C52.429 6.85784 52.6625 7.15921 52.7731 7.53202L51.6342 7.86754C51.5824 7.63145 51.4754 7.46365 51.313 7.36426C51.1572 7.26484 50.9625 7.21511 50.729 7.21511C50.4954 7.21511 50.3171 7.2555 50.1936 7.33628C50.0706 7.41085 50.0089 7.51648 50.0089 7.65319C50.0089 7.80231 50.0736 7.91413 50.2036 7.98871C50.3331 8.05705 50.5084 8.10988 50.729 8.14717L51.0014 8.19376C51.3648 8.2559 51.6925 8.33978 51.9848 8.4454C52.2831 8.54483 52.5166 8.69084 52.6854 8.88349C52.8607 9.0699 52.9483 9.32464 52.9483 9.64775C52.9483 10.1324 52.7631 10.5083 52.3932 10.7755C52.0301 11.0365 51.5401 11.167 50.9236 11.167Z" fill="#393A36"/>
<path d="M55.4242 11.1112C55.0482 11.1112 54.7171 11.0304 54.4317 10.8689C54.1529 10.7011 53.9353 10.4712 53.7794 10.1792C53.624 9.88714 53.5459 9.55158 53.5459 9.17256V6.4137H54.7724V9.07934C54.7724 9.42731 54.86 9.68829 55.0353 9.86225C55.2166 10.0363 55.473 10.1232 55.8041 10.1232C56.1801 10.1232 56.4724 10.0052 56.68 9.76907C56.8877 9.52673 56.9913 9.19121 56.9913 8.76247V6.4137H58.2178V11.0367H57.0107V10.4308H56.8359C56.7578 10.5862 56.6118 10.7384 56.3977 10.8875C56.1836 11.0367 55.859 11.1112 55.4242 11.1112Z" fill="#393A36"/>
<path d="M59.1445 11.0367V6.41377H60.3511V6.91709H60.5264C60.6106 6.76173 60.7505 6.62816 60.9447 6.5163C61.1394 6.39827 61.3958 6.33923 61.714 6.33923C62.0576 6.33923 62.3335 6.40447 62.5411 6.53494C62.7488 6.65921 62.9077 6.82387 63.0182 7.02892H63.193C63.3035 6.83011 63.4594 6.66545 63.6605 6.53494C63.8617 6.40447 64.1471 6.33923 64.517 6.33923C64.8153 6.33923 65.0847 6.40137 65.3248 6.52564C65.5713 6.64367 65.7659 6.82697 65.9088 7.07555C66.0578 7.31785 66.1325 7.62542 66.1325 7.99828V11.0367H64.906V8.08216C64.906 7.82737 64.8382 7.63787 64.7018 7.5136C64.5654 7.38313 64.3742 7.31785 64.1276 7.31785C63.8488 7.31785 63.6312 7.40487 63.4753 7.57883C63.3264 7.74659 63.2517 7.98893 63.2517 8.30585V11.0367H62.0253V8.08216C62.0253 7.82737 61.9571 7.63787 61.8211 7.5136C61.6847 7.38313 61.4934 7.31785 61.2465 7.31785C60.9676 7.31785 60.7505 7.40487 60.5946 7.57883C60.4452 7.74659 60.3706 7.98893 60.3706 8.30585V11.0367H59.1445Z" fill="#393A36"/>
</g>
<defs>
<clipPath id="clip0_596_237">
<rect width="66.0502" height="15.7094" fill="white" transform="translate(0.449707)"/>
</clipPath>
</defs>
</svg>
