<svg width="96" height="19" viewBox="0 0 96 19" fill="none" xmlns="http://www.w3.org/2000/svg">
<g clip-path="url(#clip0_596_493)">
<path d="M55.7322 13.8349H57.8512V5.84199H55.7322V13.8349ZM55.7322 4.59555H57.8512V2.6947H55.7322V4.59555Z" fill="#2F302D"/>
<path d="M59.2173 16.4519H61.3363V12.9307H61.3672C61.8189 13.6162 62.5515 14.0681 63.6731 14.0681C65.7298 14.0681 67.1322 12.4321 67.1322 9.84573C67.1322 7.35278 65.7766 5.62332 63.6576 5.62332C62.567 5.62332 61.8189 6.13752 61.305 6.83862H61.2582V5.84145H59.2173V16.4519ZM63.2213 12.3075C61.9594 12.3075 61.2895 11.3571 61.2895 9.90803C61.2895 8.4746 61.8189 7.33723 63.1436 7.33723C64.4524 7.33723 64.9818 8.39671 64.9818 9.90803C64.9818 11.4194 64.2965 12.3075 63.2213 12.3075Z" fill="#2F302D"/>
<path d="M71.359 14.0682C73.3535 14.0682 74.7246 13.1022 74.7246 11.4973C74.7246 9.62769 73.2444 9.25374 71.9043 8.9733C70.7669 8.73958 69.7076 8.67724 69.7076 7.99172C69.7076 7.41522 70.2529 7.10361 71.0786 7.10361C71.9825 7.10361 72.5278 7.41522 72.621 8.27215H74.5373C74.3819 6.66735 73.2131 5.62341 71.11 5.62341C69.2867 5.62341 67.8535 6.44922 67.8535 8.17867C67.8535 9.92371 69.2558 10.3132 70.6891 10.5937C71.7798 10.8118 72.7923 10.8897 72.7923 11.6532C72.7923 12.2141 72.2629 12.5725 71.3281 12.5725C70.3774 12.5725 69.723 12.1673 69.583 11.2481H67.6199C67.7444 12.9464 69.0377 14.0682 71.359 14.0682Z" fill="#2F302D"/>
<path d="M82.7694 13.8351V5.84216H80.6504V10.4541C80.6504 11.5135 80.0428 12.2614 79.0457 12.2614C78.1419 12.2614 77.7215 11.7473 77.7215 10.8124V5.84216H75.6179V11.1708C75.6179 12.9158 76.615 14.0532 78.3914 14.0532C79.5134 14.0532 80.1364 13.6325 80.6817 12.9003H80.7285V13.8351H82.7694Z" fill="#2F302D"/>
<path d="M84.1399 13.8344H86.2589V9.19134C86.2589 8.13182 86.8356 7.4463 87.6927 7.4463C88.4716 7.4463 88.9233 7.91369 88.9233 8.81738V13.8344H91.0423V9.19134C91.0423 8.13182 91.5877 7.4463 92.4756 7.4463C93.255 7.4463 93.7067 7.91369 93.7067 8.81738V13.8344H95.8258V8.45901C95.8258 6.71397 94.8751 5.62332 93.1923 5.62332C92.1798 5.62332 91.3382 6.15306 90.7929 7.02558H90.762C90.3725 6.18423 89.5622 5.62332 88.5493 5.62332C87.4432 5.62332 86.6643 6.18423 86.228 6.91652H86.1812V5.84145H84.1399V13.8344Z" fill="#2F302D"/>
<path d="M0.504639 13.8349H2.62362V2.6947H0.504639V13.8349Z" fill="#2F302D"/>
<path d="M7.80456 14.0681C10.2819 14.0681 11.9802 12.2296 11.9802 9.84573C11.9802 7.46184 10.2819 5.62332 7.80456 5.62332C5.32719 5.62332 3.62891 7.46184 3.62891 9.84573C3.62891 12.2296 5.32719 14.0681 7.80456 14.0681ZM7.80456 12.4477C6.49578 12.4477 5.77904 11.4038 5.77904 9.84573C5.77904 8.28765 6.49578 7.22817 7.80456 7.22817C9.09776 7.22817 9.83004 8.28765 9.83004 9.84573C9.83004 11.4038 9.09776 12.4477 7.80456 12.4477Z" fill="#2F302D"/>
<path d="M16.486 16.561C17.6701 16.561 18.6984 16.2806 19.3684 15.6573C19.9604 15.112 20.3188 14.3485 20.3188 13.2267V5.84145H18.2778V6.68284H18.2466C17.7636 6.01287 17.0313 5.62332 16.0341 5.62332C14.0086 5.62332 12.5752 7.15023 12.5752 9.53408C12.5752 11.9491 14.3202 13.3514 16.0965 13.3514C17.1092 13.3514 17.7168 12.9463 18.1842 12.4165H18.231V13.2891C18.231 14.3797 17.6545 14.9562 16.4548 14.9562C15.4732 14.9562 15.0213 14.5667 14.85 14.0681H12.7466C12.9647 15.6262 14.3046 16.561 16.486 16.561ZM16.4548 11.6531C15.3641 11.6531 14.6474 10.8584 14.6474 9.50295C14.6474 8.16299 15.3641 7.32165 16.4392 7.32165C17.7168 7.32165 18.3401 8.31882 18.3401 9.48736C18.3401 10.6715 17.7947 11.6531 16.4548 11.6531Z" fill="#2F302D"/>
<path d="M25.4696 14.0681C27.9469 14.0681 29.6452 12.2296 29.6452 9.84573C29.6452 7.46184 27.9469 5.62332 25.4696 5.62332C22.9923 5.62332 21.2939 7.46184 21.2939 9.84573C21.2939 12.2296 22.9923 14.0681 25.4696 14.0681ZM25.4696 12.4477C24.1608 12.4477 23.4441 11.4038 23.4441 9.84573C23.4441 8.28765 24.1608 7.22817 25.4696 7.22817C26.7628 7.22817 27.4951 8.28765 27.4951 9.84573C27.4951 11.4038 26.7628 12.4477 25.4696 12.4477Z" fill="#2F302D"/>
<path fill-rule="evenodd" clip-rule="evenodd" d="M42.4962 0.417847C47.5156 0.417847 51.5851 4.48702 51.5851 9.5066C51.5851 14.5262 47.5156 18.5954 42.4962 18.5954C37.4766 18.5954 33.4075 14.5262 33.4075 9.5066C33.4075 4.48702 37.4766 0.417847 42.4962 0.417847ZM42.1677 1.09795C41.1308 1.24387 40.1435 2.07704 39.3771 3.47049C39.1548 3.87468 38.9542 4.32122 38.7794 4.80337C39.8215 4.54149 40.9663 4.3871 42.1677 4.36322V1.09795ZM38.0112 5.02167C38.2286 4.33945 38.4945 3.71179 38.8014 3.15386C39.1813 2.46309 39.6322 1.86657 40.1402 1.40842C37.3778 2.21071 35.2003 4.38817 34.398 7.15066C34.8562 6.64265 35.4527 6.19175 36.1435 5.81184C36.7014 5.50496 37.329 5.23902 38.0112 5.02167ZM37.793 5.7898C37.5311 6.83192 37.3767 7.97669 37.3528 9.17809H34.0875C34.2335 8.1412 35.0666 7.15389 36.4601 6.38752C36.8643 6.16521 37.3108 5.96462 37.793 5.7898ZM38.01 9.17809C38.0371 7.86699 38.2259 6.6361 38.5382 5.54854C39.6257 5.23625 40.8566 5.04748 42.1677 5.02035V6.43951C41.6786 7.69167 40.681 8.68916 39.4288 9.17809H38.01ZM37.3528 9.83512H34.0875C34.2335 10.872 35.0666 11.8593 36.4601 12.6257C36.8643 12.848 37.3108 13.0486 37.793 13.2234C37.5311 12.1813 37.3767 11.0365 37.3528 9.83512ZM38.5382 13.4647C38.2259 12.3771 38.0371 11.1462 38.01 9.83512H39.4288C40.681 10.324 41.6786 11.3215 42.1677 12.5737V13.9929C40.8566 13.9657 39.6257 13.777 38.5382 13.4647ZM38.0112 13.9915C37.329 13.7742 36.7014 13.5082 36.1435 13.2014C35.4527 12.8215 34.8562 12.3706 34.398 11.8625C35.2003 14.625 37.3778 16.8025 40.1402 17.6048C39.6322 17.1466 39.1813 16.5501 38.8014 15.8593C38.4945 15.3014 38.2286 14.6737 38.0112 13.9915ZM42.1677 17.9152C41.1308 17.7693 40.1435 16.9362 39.3771 15.5427C39.1548 15.1385 38.9542 14.692 38.7794 14.2099C39.8215 14.4717 40.9663 14.6261 42.1677 14.65V17.9152ZM44.8522 17.6048C45.3602 17.1466 45.811 16.5501 46.1909 15.8593C46.4977 15.3014 46.764 14.6737 46.9812 13.9915C47.6633 13.7742 48.2909 13.5082 48.849 13.2014C49.5397 12.8215 50.1364 12.3706 50.5944 11.8625C49.7919 14.625 47.6147 16.8025 44.8522 17.6048ZM46.2132 14.2099C46.0383 14.692 45.8374 15.1385 45.6152 15.5427C44.8489 16.9362 43.8616 17.7693 42.8247 17.9152V14.65C44.0261 14.6261 45.1709 14.4717 46.2132 14.2099ZM47.1993 13.2234C47.6815 13.0486 48.1282 12.848 48.5322 12.6257C49.926 11.8593 50.759 10.872 50.9048 9.83512H47.6397C47.6156 11.0365 47.4611 12.1813 47.1993 13.2234ZM46.9826 9.83512C46.9553 11.1462 46.7667 12.3771 46.4541 13.4647C45.3667 13.777 44.1358 13.9657 42.8247 13.9929V12.5747C43.3137 11.3221 44.3115 10.3242 45.564 9.83512H46.9826ZM47.6397 9.17809H50.9048C50.759 8.1412 49.926 7.15389 48.5322 6.38752C48.1282 6.16521 47.6815 5.96462 47.1993 5.7898C47.4611 6.83192 47.6156 7.97669 47.6397 9.17809ZM46.4541 5.54854C46.7667 6.6361 46.9553 7.86699 46.9826 9.17809H45.564C44.3115 8.68902 43.3137 7.69108 42.8247 6.43847V5.02035C44.1358 5.04748 45.3667 5.23625 46.4541 5.54854ZM46.9812 5.02167C47.6633 5.23902 48.2909 5.50496 48.849 5.81184C49.5397 6.19175 50.1364 6.64265 50.5944 7.15066C49.7919 4.38817 47.6147 2.21071 44.8522 1.40842C45.3602 1.86657 45.811 2.46309 46.1909 3.15386C46.4977 3.71179 46.764 4.33945 46.9812 5.02167ZM42.8247 1.09795C43.8616 1.24387 44.8489 2.07704 45.6152 3.47049C45.8374 3.87468 46.0383 4.32122 46.2132 4.80337C45.1709 4.54149 44.0261 4.3871 42.8247 4.36322V1.09795Z" fill="#2F302D"/>
</g>
<defs>
<clipPath id="clip0_596_493">
<rect width="96" height="18.1775" fill="white" transform="translate(0 0.418091)"/>
</clipPath>
</defs>
</svg>
