<svg width="72" height="14" viewBox="0 0 72 14" fill="none" xmlns="http://www.w3.org/2000/svg">
<g clip-path="url(#clip0_596_224)">
<path fill-rule="evenodd" clip-rule="evenodd" d="M9.48353 4.05546C8.90545 3.68557 8.2258 3.48814 7.53055 3.48814V0.121826C8.92105 0.121826 10.2803 0.516688 11.4365 1.25648C12.5927 1.99626 13.4938 3.04776 14.0259 4.27797C14.558 5.50819 14.6973 6.86192 14.426 8.16791C14.1547 9.4739 13.4851 10.6736 12.5019 11.6151C11.5187 12.5567 10.2659 13.1979 8.90214 13.4577C7.53835 13.7175 6.12472 13.5841 4.84006 13.0746C3.55541 12.565 2.45739 11.7021 1.68486 10.5949C0.912335 9.48771 0.5 8.18602 0.5 6.85444H4.01528C4.01528 7.52023 4.22145 8.17108 4.6077 8.72467C4.99396 9.27826 5.54298 9.70971 6.18533 9.96451C6.82764 10.2193 7.53445 10.286 8.21634 10.1561C8.89824 10.0262 9.52459 9.70557 10.0162 9.2348C10.5078 8.76398 10.8426 8.16418 10.9783 7.51118C11.1139 6.85818 11.0443 6.18132 10.7782 5.56623C10.5122 4.9511 10.0616 4.42535 9.48353 4.05546Z" fill="#393A36"/>
<path fill-rule="evenodd" clip-rule="evenodd" d="M4.01527 0.121828C4.01527 0.563898 3.92435 1.00164 3.74769 1.41006C3.57103 1.81848 3.3121 2.18958 2.98567 2.50217C2.65925 2.81476 2.27173 3.06272 1.84524 3.23189C1.41874 3.40106 0.961631 3.48814 0.5 3.48814L0.5 6.85445C1.42326 6.85445 2.33749 6.68031 3.19048 6.34196C4.04347 6.00361 4.81851 5.50769 5.47134 4.8825C6.12419 4.25734 6.64206 3.51513 6.99538 2.69829C7.3487 1.88145 7.53055 1.00597 7.53055 0.121826L4.01527 0.121828Z" fill="#393A36"/>
<path d="M44.6585 4.98669H42.9529V10.175H44.6585V4.98669Z" fill="#393A36"/>
<path d="M43.1426 4.01553C43.3208 4.18634 43.5437 4.27174 43.8112 4.27174C44.0787 4.27174 44.2981 4.18634 44.4689 4.01553C44.6401 3.83762 44.7255 3.6241 44.7255 3.37501C44.7255 3.1188 44.6401 2.90528 44.4689 2.73448C44.2981 2.56367 44.0787 2.47827 43.8112 2.47827C43.5437 2.47827 43.3208 2.56367 43.1426 2.73448C42.9714 2.90528 42.886 3.1188 42.886 3.37501C42.886 3.6241 42.9714 3.83762 43.1426 4.01553Z" fill="#393A36"/>
<path d="M18.4827 10.1751V2.63818H20.2329V8.70186H23.7222V10.1751H18.4827Z" fill="#393A36"/>
<path fill-rule="evenodd" clip-rule="evenodd" d="M26.874 10.2926C26.3166 10.2926 25.8113 10.1752 25.3579 9.94035C24.912 9.69838 24.559 9.371 24.2988 8.95819C24.0388 8.54542 23.9087 8.08282 23.9087 7.5704C23.9087 7.05798 24.0388 6.59895 24.2988 6.19327C24.559 5.7876 24.912 5.46733 25.3579 5.2325C25.8038 4.99049 26.3092 4.86951 26.874 4.86951C27.4388 4.86951 27.9442 4.98696 28.3901 5.22179C28.836 5.45666 29.1891 5.7805 29.4491 6.19327C29.7093 6.59895 29.8393 7.05798 29.8393 7.5704C29.8393 8.08282 29.7093 8.54542 29.4491 8.95819C29.1891 9.371 28.836 9.69838 28.3901 9.94035C27.9442 10.1752 27.4388 10.2926 26.874 10.2926ZM26.874 8.80876C27.1193 8.80876 27.3348 8.75894 27.5206 8.6593C27.7064 8.55255 27.8476 8.40666 27.9442 8.22161C28.0482 8.02946 28.1003 7.81237 28.1003 7.5704C28.1003 7.32843 28.0482 7.11847 27.9442 6.94056C27.8401 6.75552 27.6952 6.61319 27.5094 6.51355C27.3311 6.40677 27.1193 6.35341 26.874 6.35341C26.6362 6.35341 26.4244 6.40677 26.2386 6.51355C26.0528 6.61319 25.9079 6.75552 25.8038 6.94056C25.6998 7.12561 25.6478 7.3391 25.6478 7.58107C25.6478 7.81594 25.6998 8.02946 25.8038 8.22161C25.9079 8.40666 26.0528 8.55255 26.2386 8.6593C26.4244 8.75894 26.6362 8.80876 26.874 8.80876Z" fill="#393A36"/>
<path fill-rule="evenodd" clip-rule="evenodd" d="M31.1902 12.2036C31.6436 12.4029 32.1675 12.5025 32.7621 12.5025C33.3417 12.5025 33.8583 12.3922 34.3116 12.1716C34.765 11.9509 35.1217 11.6449 35.3818 11.2535C35.6419 10.8621 35.7721 10.3995 35.7721 9.86569V4.98703H34.0998V5.33561C33.9754 5.23536 33.8342 5.1512 33.6762 5.0831C33.3863 4.94788 33.0556 4.88025 32.684 4.88025C32.1861 4.88025 31.7439 4.99413 31.3574 5.22186C30.9709 5.44249 30.6663 5.74852 30.4433 6.13996C30.2203 6.52429 30.1089 6.95841 30.1089 7.44238C30.1089 7.91922 30.2203 8.35334 30.4433 8.74477C30.6663 9.13621 30.9709 9.44581 31.3574 9.67354C31.7439 9.90127 32.1861 10.0152 32.684 10.0152C33.0482 10.0152 33.3789 9.94756 33.6762 9.81233C33.8202 9.74682 33.9502 9.66963 34.0663 9.58073V9.90841C34.0663 10.2714 33.9437 10.5525 33.6985 10.7518C33.4607 10.9511 33.1299 11.0507 32.7063 11.0507C32.3645 11.0507 32.0709 10.9937 31.8256 10.8799C31.5878 10.766 31.3723 10.5987 31.179 10.3781L30.1312 11.3816C30.3913 11.7375 30.7443 12.0115 31.1902 12.2036ZM33.6204 8.41383C33.4495 8.51347 33.2451 8.5633 33.0073 8.5633C32.7695 8.5633 32.5614 8.51347 32.383 8.41383C32.2121 8.31419 32.0783 8.17896 31.9817 8.00816C31.8851 7.83025 31.8368 7.64163 31.8368 7.44238C31.8368 7.22886 31.8851 7.03671 31.9817 6.8659C32.0783 6.69509 32.2158 6.55987 32.3942 6.46023C32.5725 6.36058 32.7769 6.31076 33.0073 6.31076C33.2451 6.31076 33.4495 6.36058 33.6204 6.46023C33.7988 6.55987 33.9326 6.69509 34.0218 6.8659C34.1184 7.03671 34.1667 7.22886 34.1667 7.44238C34.1667 7.65587 34.1184 7.84802 34.0218 8.01883C33.9326 8.18253 33.7988 8.31419 33.6204 8.41383Z" fill="#393A36"/>
<path fill-rule="evenodd" clip-rule="evenodd" d="M39.3617 10.2926C38.8042 10.2926 38.2987 10.1752 37.8456 9.94035C37.3995 9.69838 37.0466 9.371 36.7864 8.95819C36.5263 8.54542 36.3962 8.08282 36.3962 7.5704C36.3962 7.05798 36.5263 6.59895 36.7864 6.19327C37.0466 5.7876 37.3995 5.46733 37.8456 5.2325C38.2913 4.99049 38.7968 4.86951 39.3617 4.86951C39.9263 4.86951 40.4318 4.98696 40.8775 5.22179C41.3236 5.45666 41.6765 5.7805 41.9367 6.19327C42.1968 6.59895 42.3269 7.05798 42.3269 7.5704C42.3269 8.08282 42.1968 8.54542 41.9367 8.95819C41.6765 9.371 41.3236 9.69838 40.8775 9.94035C40.4318 10.1752 39.9263 10.2926 39.3617 10.2926ZM39.3617 8.80876C39.6067 8.80876 39.8222 8.75894 40.0082 8.6593C40.1938 8.55255 40.3351 8.40666 40.4318 8.22161C40.5358 8.02946 40.5879 7.81237 40.5879 7.5704C40.5879 7.32843 40.5358 7.11847 40.4318 6.94056C40.3277 6.75552 40.1829 6.61319 39.9969 6.51355C39.8187 6.40677 39.6067 6.35341 39.3617 6.35341C39.1237 6.35341 38.9118 6.40677 38.7262 6.51355C38.5402 6.61319 38.3954 6.75552 38.2913 6.94056C38.1873 7.12561 38.1352 7.3391 38.1352 7.58107C38.1352 7.81594 38.1873 8.02946 38.2913 8.22161C38.3954 8.40666 38.5402 8.55255 38.7262 8.6593C38.9118 8.75894 39.1237 8.80876 39.3617 8.80876Z" fill="#393A36"/>
<path fill-rule="evenodd" clip-rule="evenodd" d="M48.7577 10.282C48.3939 10.282 48.0592 10.2144 47.7544 10.0792C47.5941 10.008 47.4493 9.92308 47.3199 9.82431V12.3638H45.6365V4.98703H47.3421V5.3451C47.4658 5.24819 47.6033 5.1644 47.7544 5.09377C48.0592 4.95141 48.3939 4.88025 48.7577 4.88025C49.2706 4.88025 49.724 4.9977 50.1177 5.23257C50.5192 5.4674 50.8313 5.78767 51.0542 6.19335C51.2848 6.59902 51.3998 7.06162 51.3998 7.58114C51.3998 8.1007 51.2848 8.56329 51.0542 8.96897C50.8313 9.37464 50.5192 9.69488 50.1177 9.92975C49.724 10.1646 49.2706 10.282 48.7577 10.282ZM48.4459 8.80883C48.6909 8.80883 48.9029 8.75544 49.0811 8.6487C49.2671 8.54195 49.4119 8.39602 49.5159 8.21101C49.62 8.02596 49.672 7.81601 49.672 7.58114C49.672 7.33917 49.62 7.12568 49.5159 6.94063C49.4119 6.75559 49.2671 6.61326 49.0811 6.51362C48.9029 6.40684 48.6948 6.35348 48.4568 6.35348C48.2192 6.35348 48.0072 6.40684 47.8216 6.51362C47.643 6.61326 47.502 6.75559 47.398 6.94063C47.2939 7.12568 47.2419 7.33917 47.2419 7.58114C47.2419 7.81601 47.2901 8.02596 47.3867 8.21101C47.4908 8.39602 47.6356 8.54195 47.8216 8.6487C48.0072 8.75544 48.2153 8.80883 48.4459 8.80883Z" fill="#393A36"/>
<path d="M53.0694 10.1859C53.3815 10.2642 53.6972 10.3033 54.0167 10.3033C54.6931 10.3033 55.2281 10.1539 55.6222 9.85498C56.0233 9.55608 56.224 9.15398 56.224 8.64866C56.224 8.32128 56.1611 8.05794 56.0345 7.85869C55.9083 7.6523 55.7449 7.48859 55.5441 7.36761C55.3434 7.24662 55.1314 7.15052 54.9086 7.07935C54.6857 7.00819 54.4737 6.9477 54.2734 6.89787C54.0726 6.84805 53.9092 6.79113 53.7826 6.72707C53.6564 6.66301 53.5932 6.5776 53.5932 6.47086C53.5932 6.37122 53.6417 6.29648 53.738 6.24666C53.8347 6.18974 53.9795 6.16129 54.1728 6.16129C54.3735 6.16129 54.5778 6.20041 54.7859 6.27871C55.0014 6.35698 55.1947 6.49223 55.3656 6.68438L56.3354 5.74495C56.0904 5.44602 55.7709 5.22182 55.3768 5.07239C54.9905 4.91582 54.5669 4.83752 54.106 4.83752C53.6677 4.83752 53.2849 4.90869 52.9579 5.05102C52.6307 5.19338 52.3779 5.38909 52.1997 5.63817C52.0215 5.88014 51.9322 6.16839 51.9322 6.5029C51.9322 6.81604 51.9955 7.07582 52.1217 7.28221C52.2479 7.48146 52.4117 7.63806 52.612 7.75191C52.8128 7.86579 53.0247 7.95476 53.2476 8.01879C53.4705 8.08285 53.6824 8.14334 53.8832 8.2003C54.0835 8.25012 54.2473 8.31061 54.3735 8.38178C54.5075 8.44584 54.5743 8.54191 54.5743 8.67C54.5743 8.76964 54.5184 8.84791 54.4069 8.90487C54.3029 8.96179 54.1507 8.99027 53.95 8.99027C53.6599 8.99027 53.3924 8.94045 53.1474 8.84081C52.9021 8.73406 52.6901 8.58817 52.5119 8.40312L51.542 9.34256C51.728 9.5347 51.9508 9.70554 52.2109 9.85498C52.4785 9.9973 52.7646 10.1076 53.0694 10.1859Z" fill="#393A36"/>
<path d="M59.3343 10.2924C58.8365 10.2924 58.3943 10.1963 58.008 10.0041C57.6287 9.80486 57.3316 9.53441 57.1161 9.1928C56.9003 8.84408 56.7927 8.44554 56.7927 7.99715V4.98669H58.4983V7.97581C58.4983 8.15372 58.5279 8.30675 58.5876 8.43484C58.6544 8.56296 58.7511 8.6626 58.8773 8.73377C59.0038 8.80493 59.156 8.84051 59.3343 8.84051C59.587 8.84051 59.7877 8.76578 59.9364 8.61632C60.0851 8.45975 60.1593 8.24626 60.1593 7.97581V4.98669H61.8649V7.98648C61.8649 8.44198 61.7573 8.84408 61.5415 9.1928C61.326 9.53441 61.029 9.80486 60.6497 10.0041C60.2707 10.1963 59.8324 10.2924 59.3343 10.2924Z" fill="#393A36"/>
<path d="M64.4185 4.98703H62.7129V10.1753H64.4185V7.14345C64.4185 6.96554 64.4558 6.81608 64.5299 6.69509C64.6118 6.57411 64.7198 6.48157 64.8533 6.41754C64.9873 6.34634 65.1395 6.31076 65.3103 6.31076C65.5557 6.31076 65.7599 6.38549 65.9234 6.53496C66.0946 6.67729 66.18 6.88014 66.18 7.14345V10.1753H67.8856V7.14345C67.8856 6.96554 67.9229 6.81608 67.9971 6.69509C68.079 6.57411 68.1865 6.48157 68.3205 6.41754C68.454 6.34634 68.6066 6.31076 68.7774 6.31076C69.0228 6.31076 69.227 6.38549 69.3905 6.53496C69.5614 6.67729 69.6468 6.88014 69.6468 7.14345V10.1753H71.3527V6.96197C71.3527 6.52786 71.2561 6.15776 71.0627 5.85173C70.8768 5.53856 70.6205 5.30016 70.2936 5.13649C69.974 4.96565 69.606 4.88025 69.1898 4.88025C68.7662 4.88025 68.3834 4.96922 68.0417 5.14716C67.8195 5.26051 67.6255 5.40681 67.4592 5.58603C67.3042 5.39856 67.1158 5.24516 66.8933 5.12579C66.5962 4.96212 66.258 4.88025 65.8791 4.88025C65.4777 4.88025 65.1173 4.96212 64.7978 5.12579C64.6586 5.19389 64.5324 5.27545 64.4185 5.37048V4.98703Z" fill="#393A36"/>
</g>
<defs>
<clipPath id="clip0_596_224">
<rect width="71.0086" height="13.4652" fill="white" transform="translate(0.5 0.121826)"/>
</clipPath>
</defs>
</svg>
