<svg width="96" height="24" viewBox="0 0 96 24" fill="none" xmlns="http://www.w3.org/2000/svg">
<g clip-path="url(#clip0_596_490)">
<path d="M26.6851 7.1474H29.0973V16.9165H26.6851V7.1474ZM30.0591 13.2418C30.0591 10.8221 31.5621 9.37174 33.8165 9.37174C36.0709 9.37174 37.5738 10.8221 37.5738 13.2418C37.5738 15.6615 36.1235 17.1269 33.8165 17.1269C31.5095 17.1269 30.0591 15.7141 30.0591 13.2418ZM35.1842 13.2418C35.1842 11.9117 34.6656 11.1302 33.839 11.1302C33.0124 11.1302 32.5014 11.8816 32.5014 13.2418C32.5014 14.602 33.0124 15.3459 33.839 15.3459C34.6656 15.3459 35.1992 14.602 35.1992 13.2493L35.1842 13.2418ZM38.5357 17.42H40.8653C40.9713 17.6707 41.1565 17.88 41.3926 18.0157C41.6287 18.1514 41.9027 18.2061 42.1728 18.1714C43.0971 18.1714 43.5781 17.6755 43.5781 16.939V15.5864H43.5856C43.3865 16.0076 43.0646 16.3586 42.6622 16.5933C42.2598 16.8281 41.7958 16.9355 41.3312 16.9014C39.5652 16.9014 38.3929 15.5563 38.3929 13.2418C38.3929 10.9273 39.5126 9.48446 41.3988 9.48446C41.8753 9.45899 42.3481 9.58185 42.7517 9.83623C43.1555 10.0906 43.4704 10.4639 43.6532 10.9047H43.5856V9.54458H45.9752V16.8639C45.9752 18.6298 44.4122 19.7345 42.1127 19.7345C40.0236 19.727 38.686 18.7726 38.5507 17.4275L38.5357 17.42ZM43.5856 13.2418C43.5856 12.062 43.0445 11.318 42.1878 11.318C41.3312 11.318 40.8051 12.0695 40.8051 13.2418C40.8051 14.4141 41.3236 15.1054 42.1878 15.1054C43.052 15.1054 43.5856 14.4667 43.5856 13.2418ZM46.9296 13.2418C46.9296 10.8221 48.4325 9.37174 50.6869 9.37174C52.9413 9.37174 54.4443 10.8221 54.4443 13.2418C54.4443 15.6615 52.9864 17.1269 50.6869 17.1269C48.3874 17.1269 46.9446 15.7141 46.9446 13.2418H46.9296ZM52.0546 13.2418C52.0546 11.9117 51.5286 11.1302 50.7095 11.1302C49.8904 11.1302 49.3719 11.8816 49.3719 13.2418C49.3719 14.602 49.8829 15.3459 50.7095 15.3459C51.5361 15.3459 52.0696 14.602 52.0696 13.2493L52.0546 13.2418ZM55.4212 7.7636C55.4107 7.51787 55.4739 7.27462 55.6028 7.06519C55.7317 6.85568 55.9203 6.6896 56.1444 6.58823C56.3685 6.48678 56.6177 6.45477 56.8602 6.49625C57.1026 6.53766 57.3271 6.65068 57.5047 6.82074C57.6823 6.99087 57.8051 7.21015 57.8571 7.45054C57.909 7.69093 57.8879 7.9414 57.7963 8.16962C57.7048 8.39792 57.5471 8.5936 57.3434 8.73149C57.1398 8.86939 56.8995 8.94318 56.6536 8.94341C56.4965 8.94739 56.34 8.92011 56.1935 8.86322C56.0469 8.80626 55.9131 8.72075 55.7998 8.61171C55.6866 8.50267 55.5961 8.37221 55.5338 8.22786C55.4713 8.08358 55.4382 7.92832 55.4362 7.77112L55.4212 7.7636ZM55.4212 9.53707H57.8635V16.9465H55.4588L55.4212 9.53707ZM66.6481 13.2418C66.6481 15.654 65.566 17.0517 63.7249 17.0517C63.2536 17.0808 62.7847 16.9645 62.3815 16.7186C61.9783 16.4727 61.6604 16.109 61.4705 15.6766H61.4254V19.3287H59.0132V9.55961H61.4104V10.8822H61.4555C61.6388 10.4413 61.9537 10.0676 62.3571 9.8121C62.7605 9.5566 63.2329 9.43171 63.7099 9.4544C65.6036 9.43937 66.6932 10.8296 66.6932 13.2493L66.6481 13.2418ZM64.1908 13.2418C64.1908 12.0695 63.6422 11.3105 62.7931 11.3105C61.9439 11.3105 61.4104 12.062 61.4029 13.2418C61.3954 14.4216 61.9439 15.1656 62.7931 15.1656C63.6422 15.1656 64.2359 14.4667 64.2359 13.2493L64.1908 13.2418ZM70.7662 9.36423C72.7876 9.36423 74.0426 10.3186 74.0576 11.8516H71.8558C71.8558 11.318 71.4124 10.9874 70.7511 10.9874C70.0898 10.9874 69.7742 11.2429 69.7742 11.6261C69.7742 12.0094 70.0523 12.1296 70.6083 12.2424L72.1564 12.558C73.6593 12.8736 74.2605 13.4748 74.2605 14.5944C74.2605 16.0974 72.8703 17.1194 70.8037 17.1194C68.7372 17.1194 67.3921 16.1274 67.2944 14.617H69.6314C69.6991 15.1656 70.1349 15.4887 70.8413 15.4887C71.5477 15.4887 71.8783 15.2633 71.8783 14.865C71.8783 14.4667 71.6529 14.3991 71.0743 14.2788L69.6765 13.9858C68.2262 13.6777 67.4672 12.9187 67.4672 11.784C67.5123 10.3111 68.7748 9.37174 70.8112 9.37174L70.7662 9.36423ZM82.3387 16.939H80.0017V15.5488H79.9566C79.8258 16.0125 79.541 16.4178 79.1488 16.6978C78.7565 16.9779 78.2808 17.1159 77.7999 17.0893C77.4369 17.1011 77.0747 17.036 76.7388 16.8982C76.4029 16.7605 76.0993 16.5531 75.8491 16.2899C75.5981 16.0266 75.4065 15.7133 75.2855 15.3706C75.1645 15.028 75.1172 14.6635 75.1472 14.3014V9.54458H77.5594V13.7829C77.5594 14.6546 78.0178 15.128 78.7693 15.128C78.9459 15.1266 79.1195 15.0875 79.2795 15.0132C79.4396 14.9389 79.5816 14.8312 79.6958 14.6972C79.8108 14.5633 79.8957 14.4064 79.9446 14.237C79.9927 14.0675 80.0047 13.8896 79.9791 13.7152V9.54458H82.3838L82.3387 16.939ZM83.5035 9.53707H85.8481V10.9649H85.9007C86.03 10.5074 86.308 10.1059 86.6898 9.82307C87.0723 9.5403 87.5374 9.39211 88.0123 9.4018C88.4895 9.36032 88.9652 9.49829 89.3454 9.78873C89.7264 10.0792 89.9849 10.5013 90.0714 10.9724H90.1766C90.3269 10.4987 90.6289 10.088 91.037 9.80399C91.4443 9.51993 91.935 9.37858 92.431 9.4018C92.7609 9.38925 93.09 9.44651 93.3959 9.56983C93.7024 9.69307 93.979 9.87966 94.2082 10.1173C94.4374 10.355 94.6132 10.6383 94.7252 10.9488C94.8379 11.2594 94.883 11.59 94.8582 11.9192V16.9465H92.431V12.5354C92.431 11.784 92.0778 11.3631 91.3939 11.3631C91.2421 11.3607 91.0918 11.391 90.9528 11.452C90.8138 11.5131 90.6906 11.6035 90.5899 11.717C90.4892 11.8305 90.414 11.9644 90.3697 12.1096C90.3261 12.2547 90.3141 12.4077 90.3344 12.558V16.9465H88.0349V12.5129C88.0349 11.7614 87.6667 11.3631 87.0054 11.3631C86.8521 11.3619 86.7003 11.3935 86.5605 11.4557C86.42 11.518 86.2952 11.6095 86.193 11.7241C86.0916 11.8387 86.0157 11.9737 85.9706 12.1201C85.9248 12.2665 85.9112 12.421 85.9308 12.573V16.9465H83.5186L83.5035 9.53707Z" fill="#2F302D"/>
<path d="M21.9126 7.78636C21.9127 6.29072 21.4611 4.82991 20.6169 3.59529C19.7727 2.36068 18.5752 1.40981 17.1815 0.867247C15.7877 0.32468 14.2626 0.215717 12.8058 0.554622C11.349 0.893526 10.0286 1.6645 9.01746 2.76656H-0.36084V22.5602H19.4403V13.3097C20.2175 12.6145 20.8394 11.7634 21.2654 10.8116C21.6914 9.85989 21.912 8.8291 21.9126 7.78636ZM18.1027 7.78636C18.1042 8.50304 17.893 9.20408 17.496 9.80075C17.0988 10.3973 16.5337 10.8628 15.872 11.1381C15.2102 11.4134 14.4818 11.4862 13.7786 11.3473C13.0755 11.2084 12.4294 10.864 11.9221 10.3577C11.4148 9.85147 11.0691 9.20611 10.9287 8.50326C10.7884 7.80049 10.8597 7.07179 11.1336 6.40952C11.4075 5.74723 11.8718 5.18109 12.4675 4.78276C13.0634 4.38443 13.764 4.17181 14.4806 4.1718C15.44 4.1718 16.3601 4.55238 17.0392 5.23003C17.7183 5.90767 18.1008 6.82704 18.1027 7.78636ZM15.6304 18.7503H3.4491V6.5765H7.16134C7.08965 6.97591 7.05192 7.38065 7.04862 7.78636C7.05065 9.75686 7.83428 11.6461 9.22765 13.0394C10.6209 14.4327 12.5101 15.2164 14.4806 15.2184C14.8659 15.2163 15.2504 15.1837 15.6304 15.1207V18.7503Z" fill="#2F302D"/>
</g>
<defs>
<clipPath id="clip0_596_490">
<rect width="96" height="23.0137" fill="white"/>
</clipPath>
</defs>
</svg>
